<?xml version="1.0" encoding="UTF-8"?> <svg xmlns="http://www.w3.org/2000/svg" width="11" height="14" viewBox="0 0 11 14" fill="none"><path d="M4.67652 0.369721C4.18688 0.417509 3.52409 0.645831 3.08412 0.916632C2.84285 1.06663 2.43126 1.42903 2.20276 1.69585C1.95297 1.98656 1.69183 2.49232 1.58397 2.89188C1.48462 3.25959 1.46759 3.50118 1.45907 4.63085L1.45198 5.5813L0.895628 5.58927C0.590489 5.59325 0.299541 5.60387 0.249867 5.61183C0.143423 5.62909 0.0582678 5.66626 0.0327212 5.70874C0.0185287 5.73131 0.0128517 5.9437 0.00575537 6.64725C-0.00701792 8.05037 0.00291687 11.7765 0.0213672 11.973C0.0383982 12.1641 0.0752989 12.2916 0.159035 12.4482C0.350634 12.8 0.654355 13.0655 1.04465 13.2221C1.27173 13.3137 1.33134 13.3217 1.87633 13.3389C2.45255 13.3589 6.9005 13.3642 7.81308 13.3469C8.81933 13.3283 8.88887 13.319 9.18408 13.185C9.46935 13.0549 9.71914 12.8531 9.89229 12.6088C10.1052 12.3102 10.1236 12.2133 10.1407 11.3332C10.1548 10.619 10.1435 5.83485 10.1279 5.76051C10.1052 5.65166 10.0598 5.6344 9.73475 5.61051C9.62121 5.60122 8.28711 5.59458 6.21216 5.58927L2.87407 5.58263L2.87549 4.82996C2.87833 4.0242 2.8911 3.59145 2.91665 3.44145C3.02167 2.83746 3.35094 2.35426 3.89168 2.01311C4.1216 1.86709 4.42532 1.75956 4.7262 1.71576C4.93625 1.6839 5.34783 1.69452 5.53943 1.73434C5.89992 1.81001 6.18945 1.94275 6.47898 2.16842C7.02681 2.59321 7.27234 3.18392 7.27376 4.08526C7.27376 4.1981 7.28086 4.33217 7.28795 4.38129C7.32485 4.61624 7.53207 4.82465 7.79179 4.88837C8.17499 4.98129 8.57664 4.7397 8.66463 4.36403C8.69018 4.25385 8.69869 3.85296 8.68024 3.62065C8.59935 2.61445 8.24453 1.90293 7.498 1.24982C6.99985 0.814418 6.33847 0.506449 5.69129 0.409545C5.35493 0.360429 4.93625 0.343172 4.67652 0.369721ZM5.32229 7.81673C5.44718 7.85258 5.57917 7.92957 5.6842 8.0278C5.85734 8.19108 5.94392 8.37559 5.94534 8.58533C5.94676 8.73002 5.92547 8.80171 5.83889 8.95569C5.76509 9.08445 5.67284 9.19065 5.57775 9.25569L5.50111 9.30879L5.49969 10.0469V10.7862L5.42021 10.8539C5.29674 10.9601 5.27829 10.9655 5.07392 10.9655C4.87096 10.9655 4.85535 10.9601 4.73046 10.8553L4.64814 10.7862V10.0482L4.64672 9.30879L4.56866 9.25569C4.43525 9.1641 4.29616 8.97295 4.22804 8.78445C4.18688 8.67161 4.19256 8.47382 4.23939 8.35037C4.39977 7.92957 4.88515 7.69063 5.32229 7.81673Z" fill="#161616"></path></svg> 