<?xml version="1.0" encoding="UTF-8"?> <svg xmlns="http://www.w3.org/2000/svg" width="30" height="30" viewBox="0 0 30 30" fill="none"><rect width="30" height="30" rx="15" fill="#C4F44A"></rect><path fill-rule="evenodd" clip-rule="evenodd" d="M17.7609 18.3178L17.7612 18.317L17.7686 18.2985L19.0458 11.8593V11.8384C19.0458 11.678 18.9865 11.5379 18.8575 11.4539C18.7446 11.3804 18.6148 11.3752 18.5238 11.3821C18.4275 11.3894 18.3368 11.4134 18.2739 11.4334C18.2416 11.4437 18.2145 11.4536 18.1952 11.4611C18.1855 11.4649 18.1776 11.4681 18.1719 11.4704L18.1663 11.4728L11.0453 14.2662L11.0434 14.2669C11.0395 14.2683 11.0344 14.2702 11.0283 14.2726C11.0161 14.2774 10.9994 14.2842 10.9798 14.2931C10.9414 14.3105 10.8882 14.3374 10.8344 14.3743C10.7428 14.437 10.5686 14.5853 10.598 14.8205C10.6224 15.0153 10.7567 15.139 10.8472 15.2031C10.8958 15.2374 10.9422 15.2622 10.9762 15.2784C10.9934 15.2866 11.008 15.2929 11.0189 15.2973C11.0244 15.2995 11.029 15.3013 11.0325 15.3026L11.037 15.3043L11.0399 15.3054L12.2858 15.7248C12.2816 15.803 12.2893 15.8827 12.31 15.9613L12.9341 18.3286C13.0081 18.6093 13.262 18.8048 13.5523 18.8046C13.8125 18.8044 14.0433 18.647 14.1413 18.4122L15.1156 17.3704L16.789 18.6533L16.8127 18.6637C16.9648 18.73 17.1068 18.7511 17.2367 18.7333C17.3664 18.7156 17.4694 18.6612 17.5468 18.5993C17.623 18.5383 17.6752 18.4696 17.708 18.4178C17.7247 18.3915 17.7372 18.3683 17.7458 18.3509C17.7501 18.3422 17.7535 18.3348 17.7561 18.329L17.7593 18.3216L17.7604 18.3189L17.7609 18.3178ZM12.9278 15.7985C12.9136 15.7447 12.9359 15.6879 12.9828 15.6581L17.2086 12.9745C17.2086 12.9745 17.4571 12.8236 17.4482 12.9745C17.4482 12.9745 17.4926 13.0012 17.3594 13.1254C17.2331 13.2434 14.3476 16.0292 14.0556 16.3111C14.0388 16.3274 14.0287 16.3461 14.0228 16.3687L13.5518 18.1658L12.9278 15.7985Z" fill="#161616"></path></svg> 