<?xml version="1.0" encoding="UTF-8"?> <svg xmlns="http://www.w3.org/2000/svg" width="16" height="16" viewBox="0 0 16 16" fill="none"><path d="M7.48555 0.819913C7.13566 0.854684 6.93138 0.880763 6.72493 0.917707C4.68863 1.27194 2.8653 2.5324 1.80043 4.32096C1.26364 5.22501 0.931143 6.23991 0.824656 7.30261C0.796404 7.59164 0.796404 8.40877 0.824656 8.69781C0.968088 10.1321 1.54182 11.5034 2.46108 12.6074C2.65885 12.8443 3.13043 13.3159 3.36731 13.5136C5.20151 15.0414 7.68983 15.5652 9.98909 14.9089C11.3148 14.5329 12.5557 13.7397 13.4467 12.7052C13.8618 12.2206 14.1551 11.7794 14.4485 11.1948C14.8984 10.2951 15.1374 9.37368 15.1874 8.36531C15.2743 6.59849 14.7506 4.94467 13.664 3.54947C13.451 3.27782 12.9773 2.78232 12.7013 2.54544C11.6233 1.62183 10.3542 1.05679 8.90901 0.861204C8.67213 0.828606 7.68549 0.800354 7.48555 0.819913ZM8.19402 4.37746C8.24618 4.40571 8.32007 4.47091 8.35484 4.52089L8.42003 4.61434L8.42655 5.95521L8.43307 7.29826L8.52 7.3678C8.71994 7.52862 8.83946 7.81983 8.81121 8.07844C8.77427 8.4305 8.48306 8.74779 8.1549 8.79778C8.08101 8.80864 7.97018 8.91078 7.08351 9.79311C6.19249 10.682 6.086 10.7797 5.9969 10.8037C5.72742 10.8754 5.46664 10.7102 5.43839 10.4472C5.41448 10.2495 5.41448 10.2517 6.37287 9.28892L7.26388 8.39356L7.22911 8.27838C7.17478 8.10235 7.16392 8.00021 7.19 7.86547C7.22259 7.68075 7.29648 7.54601 7.43557 7.40909L7.56161 7.28305V5.99433C7.56161 5.08593 7.56813 4.68171 7.58552 4.62955C7.67245 4.37094 7.95714 4.25359 8.19402 4.37746Z" fill="#161616"></path></svg> 