<?xml version="1.0" encoding="UTF-8"?> <svg xmlns="http://www.w3.org/2000/svg" width="168" height="45" viewBox="0 0 168 45" fill="none"><rect width="168" height="45" rx="22.5" fill="white"></rect><path d="M22.0568 35V26.2727H25.108C25.7159 26.2727 26.2173 26.3778 26.6122 26.5881C27.0071 26.7955 27.3011 27.0753 27.4943 27.4276C27.6875 27.777 27.7841 28.1648 27.7841 28.5909C27.7841 28.9659 27.7173 29.2756 27.5838 29.5199C27.4531 29.7642 27.2798 29.9574 27.0639 30.0994C26.8509 30.2415 26.6193 30.3466 26.3693 30.4148V30.5C26.6364 30.517 26.9048 30.6108 27.1747 30.7812C27.4446 30.9517 27.6705 31.196 27.8523 31.5142C28.0341 31.8324 28.125 32.2216 28.125 32.6818C28.125 33.1193 28.0256 33.5128 27.8267 33.8622C27.6278 34.2116 27.3139 34.4886 26.8849 34.6932C26.456 34.8977 25.8977 35 25.2102 35H22.0568ZM23.1136 34.0625H25.2102C25.9006 34.0625 26.3906 33.929 26.6804 33.6619C26.973 33.392 27.1193 33.0653 27.1193 32.6818C27.1193 32.3864 27.044 32.1136 26.8935 31.8636C26.7429 31.6108 26.5284 31.4091 26.25 31.2585C25.9716 31.1051 25.642 31.0284 25.2614 31.0284H23.1136V34.0625ZM23.1136 30.108H25.0739C25.392 30.108 25.679 30.0455 25.9347 29.9205C26.1932 29.7955 26.3977 29.6193 26.5483 29.392C26.7017 29.1648 26.7784 28.8977 26.7784 28.5909C26.7784 28.2074 26.6449 27.8821 26.3778 27.6151C26.1108 27.3452 25.6875 27.2102 25.108 27.2102H23.1136V30.108ZM28.9056 35V34.0625H29.1442C29.3403 34.0625 29.5036 34.0241 29.6343 33.9474C29.765 33.8679 29.8701 33.7301 29.9496 33.5341C30.032 33.3352 30.0945 33.0597 30.1371 32.7074C30.1826 32.3523 30.2153 31.9006 30.2351 31.3523L30.3545 28.4545H34.7181V35H33.7124V29.392H31.309L31.2067 31.7273C31.184 32.2642 31.1357 32.7372 31.0618 33.1463C30.9908 33.5526 30.8814 33.8935 30.7337 34.169C30.5888 34.4446 30.3957 34.652 30.1542 34.7912C29.9127 34.9304 29.6101 35 29.2465 35H28.9056ZM38.2494 35.1534C37.8346 35.1534 37.4582 35.0753 37.1201 34.919C36.7821 34.7599 36.5136 34.5312 36.3147 34.233C36.1159 33.9318 36.0164 33.5682 36.0164 33.142C36.0164 32.767 36.0903 32.4631 36.238 32.2301C36.3858 31.9943 36.5832 31.8097 36.8304 31.6761C37.0775 31.5426 37.3503 31.4432 37.6486 31.3778C37.9497 31.3097 38.2522 31.2557 38.5562 31.2159C38.9539 31.1648 39.2764 31.1264 39.5236 31.1009C39.7736 31.0724 39.9554 31.0256 40.069 30.9602C40.1855 30.8949 40.2437 30.7812 40.2437 30.6193V30.5852C40.2437 30.1648 40.1287 29.8381 39.8986 29.6051C39.6713 29.3722 39.3261 29.2557 38.863 29.2557C38.3829 29.2557 38.0065 29.3608 37.7338 29.571C37.4611 29.7812 37.2693 30.0057 37.1585 30.2443L36.2039 29.9034C36.3744 29.5057 36.6017 29.196 36.8858 28.9744C37.1727 28.75 37.4852 28.5937 37.8233 28.5057C38.1642 28.4148 38.4994 28.3693 38.8289 28.3693C39.0392 28.3693 39.2807 28.3949 39.5534 28.446C39.8289 28.4943 40.0946 28.5952 40.3503 28.7486C40.6088 28.902 40.8233 29.1335 40.9937 29.4432C41.1642 29.7528 41.2494 30.1676 41.2494 30.6875V35H40.2437V34.1136H40.1926C40.1244 34.2557 40.0108 34.4077 39.8517 34.5696C39.6926 34.7315 39.4809 34.8693 39.2167 34.983C38.9525 35.0966 38.6301 35.1534 38.2494 35.1534ZM38.4028 34.25C38.8005 34.25 39.1358 34.1719 39.4085 34.0156C39.6841 33.8594 39.8914 33.6577 40.0307 33.4105C40.1727 33.1634 40.2437 32.9034 40.2437 32.6307V31.7102C40.2011 31.7614 40.1074 31.8082 39.9625 31.8509C39.8204 31.8906 39.6557 31.9261 39.4682 31.9574C39.2835 31.9858 39.1031 32.0114 38.927 32.0341C38.7537 32.054 38.613 32.071 38.5051 32.0852C38.2437 32.1193 37.9994 32.1747 37.7721 32.2514C37.5477 32.3253 37.3659 32.4375 37.2267 32.5881C37.0903 32.7358 37.0221 32.9375 37.0221 33.1932C37.0221 33.5426 37.1514 33.8068 37.4099 33.9858C37.6713 34.1619 38.0022 34.25 38.4028 34.25ZM42.1461 36.875V34.0625H42.6916C42.8251 33.9233 42.9402 33.7727 43.0367 33.6108C43.1333 33.4489 43.2171 33.2571 43.2882 33.0355C43.362 32.8111 43.4245 32.5384 43.4757 32.2173C43.5268 31.8935 43.5723 31.5028 43.612 31.0455L43.8336 28.4545H47.9927V34.0625H48.9984V36.875H47.9927V35H43.1518V36.875H42.1461ZM43.8336 34.0625H46.987V29.392H44.7711L44.6007 31.0455C44.5296 31.7301 44.4416 32.3281 44.3365 32.8395C44.2314 33.3509 44.0637 33.7585 43.8336 34.0625ZM49.5137 35V34.0625H49.7524C49.9484 34.0625 50.1117 34.0241 50.2424 33.9474C50.3731 33.8679 50.4782 33.7301 50.5578 33.5341C50.6401 33.3352 50.7026 33.0597 50.7453 32.7074C50.7907 32.3523 50.8234 31.9006 50.8433 31.3523L50.9626 28.4545H55.3262V35H54.3205V29.392H51.9171L51.8149 31.7273C51.7921 32.2642 51.7438 32.7372 51.67 33.1463C51.5989 33.5526 51.4896 33.8935 51.3418 34.169C51.197 34.4446 51.0038 34.652 50.7623 34.7912C50.5208 34.9304 50.2183 35 49.8546 35H49.5137ZM59.6757 35.1364C59.045 35.1364 58.501 34.9972 58.0436 34.7188C57.5891 34.4375 57.2382 34.0455 56.9911 33.5426C56.7467 33.0369 56.6246 32.4489 56.6246 31.7784C56.6246 31.108 56.7467 30.517 56.9911 30.0057C57.2382 29.4915 57.582 29.0909 58.0223 28.804C58.4655 28.5142 58.9825 28.3693 59.5734 28.3693C59.9143 28.3693 60.251 28.4261 60.5834 28.5398C60.9158 28.6534 61.2183 28.8381 61.4911 29.0938C61.7638 29.3466 61.9811 29.6818 62.143 30.0994C62.305 30.517 62.3859 31.0312 62.3859 31.642V32.0682H57.3405V31.1989H61.3632C61.3632 30.8295 61.2893 30.5 61.1416 30.2102C60.9967 29.9205 60.7893 29.6918 60.5195 29.5241C60.2524 29.3565 59.9371 29.2727 59.5734 29.2727C59.1729 29.2727 58.8263 29.3722 58.5337 29.571C58.2439 29.767 58.0209 30.0227 57.8646 30.3381C57.7084 30.6534 57.6303 30.9915 57.6303 31.3523V31.9318C57.6303 32.4261 57.7155 32.8452 57.8859 33.1889C58.0592 33.5298 58.2993 33.7898 58.6061 33.9688C58.9129 34.1449 59.2695 34.233 59.6757 34.233C59.9399 34.233 60.1786 34.196 60.3916 34.1222C60.6075 34.0455 60.7936 33.9318 60.9499 33.7812C61.1061 33.6278 61.2268 33.4375 61.3121 33.2102L62.2837 33.483C62.1814 33.8125 62.0095 34.1023 61.768 34.3523C61.5266 34.5994 61.2283 34.7926 60.8732 34.9318C60.518 35.0682 60.1189 35.1364 59.6757 35.1364ZM68.0565 31.267V32.2045H64.4428V31.267H68.0565ZM64.6815 28.4545V35H63.6758V28.4545H64.6815ZM68.8235 28.4545V35H67.8178V28.4545H68.8235ZM72.3463 35.1534C71.9315 35.1534 71.5551 35.0753 71.217 34.919C70.8789 34.7599 70.6105 34.5312 70.4116 34.233C70.2128 33.9318 70.1133 33.5682 70.1133 33.142C70.1133 32.767 70.1872 32.4631 70.3349 32.2301C70.4826 31.9943 70.6801 31.8097 70.9272 31.6761C71.1744 31.5426 71.4471 31.4432 71.7454 31.3778C72.0466 31.3097 72.3491 31.2557 72.6531 31.2159C73.0508 31.1648 73.3733 31.1264 73.6204 31.1009C73.8704 31.0724 74.0522 31.0256 74.1659 30.9602C74.2824 30.8949 74.3406 30.7812 74.3406 30.6193V30.5852C74.3406 30.1648 74.2255 29.8381 73.9954 29.6051C73.7682 29.3722 73.423 29.2557 72.9599 29.2557C72.4798 29.2557 72.1034 29.3608 71.8307 29.571C71.5579 29.7812 71.3662 30.0057 71.2554 30.2443L70.3008 29.9034C70.4713 29.5057 70.6986 29.196 70.9826 28.9744C71.2696 28.75 71.5821 28.5937 71.9201 28.5057C72.2611 28.4148 72.5963 28.3693 72.9258 28.3693C73.1361 28.3693 73.3775 28.3949 73.6503 28.446C73.9258 28.4943 74.1914 28.5952 74.4471 28.7486C74.7057 28.902 74.9201 29.1335 75.0906 29.4432C75.2611 29.7528 75.3463 30.1676 75.3463 30.6875V35H74.3406V34.1136H74.2895C74.2213 34.2557 74.1076 34.4077 73.9486 34.5696C73.7895 34.7315 73.5778 34.8693 73.3136 34.983C73.0494 35.0966 72.727 35.1534 72.3463 35.1534ZM72.4997 34.25C72.8974 34.25 73.2326 34.1719 73.5054 34.0156C73.7809 33.8594 73.9883 33.6577 74.1275 33.4105C74.2696 33.1634 74.3406 32.9034 74.3406 32.6307V31.7102C74.298 31.7614 74.2042 31.8082 74.0593 31.8509C73.9173 31.8906 73.7525 31.9261 73.565 31.9574C73.3804 31.9858 73.2 32.0114 73.0238 32.0341C72.8505 32.054 72.7099 32.071 72.602 32.0852C72.3406 32.1193 72.0963 32.1747 71.869 32.2514C71.6446 32.3253 71.4628 32.4375 71.3236 32.5881C71.1872 32.7358 71.119 32.9375 71.119 33.1932C71.119 33.5426 71.2483 33.8068 71.5068 33.9858C71.7682 34.1619 72.0991 34.25 72.4997 34.25ZM85.3439 35L82.3439 30.9943H81.27V35H80.2132V26.2727H81.27V30.0568H81.7303L85.2246 26.2727H86.486L82.9575 30.108L86.6053 35H85.3439ZM89.5208 35.1534C89.106 35.1534 88.7296 35.0753 88.3915 34.919C88.0535 34.7599 87.785 34.5312 87.5861 34.233C87.3873 33.9318 87.2879 33.5682 87.2879 33.142C87.2879 32.767 87.3617 32.4631 87.5094 32.2301C87.6572 31.9943 87.8546 31.8097 88.1018 31.6761C88.3489 31.5426 88.6217 31.4432 88.92 31.3778C89.2211 31.3097 89.5236 31.2557 89.8276 31.2159C90.2254 31.1648 90.5478 31.1264 90.795 31.1009C91.045 31.0724 91.2268 31.0256 91.3404 30.9602C91.4569 30.8949 91.5151 30.7812 91.5151 30.6193V30.5852C91.5151 30.1648 91.4001 29.8381 91.17 29.6051C90.9427 29.3722 90.5975 29.2557 90.1344 29.2557C89.6543 29.2557 89.2779 29.3608 89.0052 29.571C88.7325 29.7812 88.5407 30.0057 88.4299 30.2443L87.4754 29.9034C87.6458 29.5057 87.8731 29.196 88.1572 28.9744C88.4441 28.75 88.7566 28.5937 89.0947 28.5057C89.4356 28.4148 89.7708 28.3693 90.1004 28.3693C90.3106 28.3693 90.5521 28.3949 90.8248 28.446C91.1004 28.4943 91.366 28.5952 91.6217 28.7486C91.8802 28.902 92.0947 29.1335 92.2651 29.4432C92.4356 29.7528 92.5208 30.1676 92.5208 30.6875V35H91.5151V34.1136H91.464C91.3958 34.2557 91.2822 34.4077 91.1231 34.5696C90.964 34.7315 90.7523 34.8693 90.4881 34.983C90.2239 35.0966 89.9015 35.1534 89.5208 35.1534ZM89.6742 34.25C90.0719 34.25 90.4072 34.1719 90.6799 34.0156C90.9555 33.8594 91.1629 33.6577 91.3021 33.4105C91.4441 33.1634 91.5151 32.9034 91.5151 32.6307V31.7102C91.4725 31.7614 91.3788 31.8082 91.2339 31.8509C91.0918 31.8906 90.9271 31.9261 90.7396 31.9574C90.5549 31.9858 90.3745 32.0114 90.1984 32.0341C90.0251 32.054 89.8844 32.071 89.7765 32.0852C89.5151 32.1193 89.2708 32.1747 89.0435 32.2514C88.8191 32.3253 88.6373 32.4375 88.4981 32.5881C88.3617 32.7358 88.2935 32.9375 88.2935 33.1932C88.2935 33.5426 88.4228 33.8068 88.6813 33.9858C88.9427 34.1619 89.2736 34.25 89.6742 34.25ZM97.6959 33.6364L99.98 28.4545H100.935L98.105 35H97.2868L94.5084 28.4545H95.4459L97.6959 33.6364ZM95.1221 28.4545V35H94.1164V28.4545H95.1221ZM100.27 35V28.4545H101.275V35H100.27ZM105.621 35.1364C104.99 35.1364 104.446 34.9972 103.989 34.7188C103.534 34.4375 103.183 34.0455 102.936 33.5426C102.692 33.0369 102.57 32.4489 102.57 31.7784C102.57 31.108 102.692 30.517 102.936 30.0057C103.183 29.4915 103.527 29.0909 103.967 28.804C104.41 28.5142 104.928 28.3693 105.518 28.3693C105.859 28.3693 106.196 28.4261 106.528 28.5398C106.861 28.6534 107.163 28.8381 107.436 29.0938C107.709 29.3466 107.926 29.6818 108.088 30.0994C108.25 30.517 108.331 31.0312 108.331 31.642V32.0682H103.285V31.1989H107.308C107.308 30.8295 107.234 30.5 107.087 30.2102C106.942 29.9205 106.734 29.6918 106.464 29.5241C106.197 29.3565 105.882 29.2727 105.518 29.2727C105.118 29.2727 104.771 29.3722 104.479 29.571C104.189 29.767 103.966 30.0227 103.81 30.3381C103.653 30.6534 103.575 30.9915 103.575 31.3523V31.9318C103.575 32.4261 103.66 32.8452 103.831 33.1889C104.004 33.5298 104.244 33.7898 104.551 33.9688C104.858 34.1449 105.214 34.233 105.621 34.233C105.885 34.233 106.124 34.196 106.337 34.1222C106.553 34.0455 106.739 33.9318 106.895 33.7812C107.051 33.6278 107.172 33.4375 107.257 33.2102L108.229 33.483C108.126 33.8125 107.955 34.1023 107.713 34.3523C107.472 34.5994 107.173 34.7926 106.818 34.9318C106.463 35.0682 106.064 35.1364 105.621 35.1364ZM114.001 31.267V32.2045H110.388V31.267H114.001ZM110.626 28.4545V35H109.621V28.4545H110.626ZM114.768 28.4545V35H113.763V28.4545H114.768ZM119.024 35.1364C118.411 35.1364 117.882 34.9915 117.439 34.7017C116.996 34.4119 116.655 34.0128 116.416 33.5043C116.178 32.9957 116.058 32.4148 116.058 31.7614C116.058 31.0966 116.18 30.5099 116.425 30.0014C116.672 29.4901 117.016 29.0909 117.456 28.804C117.899 28.5142 118.416 28.3693 119.007 28.3693C119.467 28.3693 119.882 28.4545 120.252 28.625C120.621 28.7955 120.923 29.0341 121.159 29.3409C121.395 29.6477 121.541 30.0057 121.598 30.4148H120.592C120.516 30.1165 120.345 29.8523 120.081 29.6222C119.82 29.3892 119.467 29.2727 119.024 29.2727C118.632 29.2727 118.288 29.375 117.993 29.5795C117.7 29.7812 117.472 30.0668 117.307 30.4361C117.145 30.8026 117.064 31.233 117.064 31.7273C117.064 32.233 117.144 32.6733 117.303 33.0483C117.465 33.4233 117.692 33.7145 117.984 33.9219C118.28 34.1293 118.627 34.233 119.024 34.233C119.286 34.233 119.523 34.1875 119.736 34.0966C119.949 34.0057 120.129 33.875 120.277 33.7045C120.425 33.5341 120.53 33.3295 120.592 33.0909H121.598C121.541 33.4773 121.401 33.8253 121.176 34.1349C120.955 34.4418 120.661 34.6861 120.294 34.8679C119.93 35.0469 119.507 35.1364 119.024 35.1364ZM122.828 35V28.4545H123.834V31.3011H124.499L126.851 28.4545H128.146L125.504 31.608L128.181 35H126.885L124.737 32.2386H123.834V35H122.828ZM130.039 33.517L133.193 28.4545H134.352V35H133.346V29.9375L130.21 35H129.034V28.4545H130.039V33.517ZM136.704 28.4545L138.272 31.1307L139.84 28.4545H140.999L138.886 31.7273L140.999 35H139.84L138.272 32.4602L136.704 35H135.545L137.624 31.7273L135.545 28.4545H136.704Z" fill="#161616"></path><path opacity="0.77" d="M24.3807 11.5938H25.5312C26.071 11.5938 26.5504 11.7145 26.9695 11.956C27.3885 12.1974 27.7176 12.5336 27.9567 12.9645C28.1958 13.3954 28.3153 13.8949 28.3153 14.4631C28.3153 15.0312 28.1958 15.532 27.9567 15.9652C27.7176 16.3984 27.3885 16.737 26.9695 16.9808C26.5504 17.2247 26.071 17.3466 25.5312 17.3466H24.3807C23.8409 17.3466 23.3615 17.2259 22.9425 16.9844C22.5234 16.7429 22.1944 16.4067 21.9553 15.9759C21.7161 15.545 21.5966 15.0455 21.5966 14.4773C21.5966 13.9091 21.7161 13.4084 21.9553 12.9751C22.1944 12.5419 22.5234 12.2034 22.9425 11.9595C23.3615 11.7157 23.8409 11.5938 24.3807 11.5938ZM24.3807 12.375C23.9688 12.375 23.6207 12.4614 23.3366 12.6342C23.0549 12.8071 22.8407 13.0509 22.6939 13.3658C22.5495 13.6806 22.4773 14.0511 22.4773 14.4773C22.4773 14.8987 22.5495 15.2656 22.6939 15.5781C22.8407 15.8906 23.0549 16.1333 23.3366 16.3061C23.6207 16.4789 23.9688 16.5653 24.3807 16.5653H25.5312C25.9432 16.5653 26.29 16.4789 26.5717 16.3061C26.8558 16.1333 27.0701 15.8894 27.2145 15.5746C27.3613 15.2597 27.4347 14.8892 27.4347 14.4631C27.4347 14.0417 27.3613 13.6747 27.2145 13.3622C27.0701 13.0497 26.8558 12.8071 26.5717 12.6342C26.29 12.4614 25.9432 12.375 25.5312 12.375H24.3807ZM25.4034 10.5994V18.2983H24.5227V10.5994H25.4034ZM30.5153 16.7642L33.1431 12.5455H34.109V18H33.271V13.7812L30.6573 18H29.6772V12.5455H30.5153V16.7642ZM34.9018 13.3267V12.5455H39.3336V13.3267H37.5439V18H36.7058V13.3267H34.9018ZM44.2067 14.8892V15.6705H41.1953V14.8892H44.2067ZM41.3942 12.5455V18H40.5561V12.5455H41.3942ZM44.8459 12.5455V18H44.0078V12.5455H44.8459ZM48.6634 18.1136C48.1378 18.1136 47.6844 17.9976 47.3033 17.7656C46.9245 17.5312 46.6321 17.2045 46.4261 16.7855C46.2225 16.3641 46.1207 15.8741 46.1207 15.3153C46.1207 14.7566 46.2225 14.2642 46.4261 13.8381C46.6321 13.4096 46.9186 13.0758 47.2855 12.8366C47.6548 12.5952 48.0857 12.4744 48.5781 12.4744C48.8622 12.4744 49.1428 12.5218 49.4197 12.6165C49.6967 12.7112 49.9489 12.8651 50.1761 13.0781C50.4034 13.2888 50.5845 13.5682 50.7195 13.9162C50.8544 14.2642 50.9219 14.6927 50.9219 15.2017V15.5568H46.7173V14.8324H50.0696C50.0696 14.5246 50.008 14.25 49.8849 14.0085C49.7642 13.767 49.5914 13.5765 49.3665 13.4368C49.1439 13.2971 48.8812 13.2273 48.5781 13.2273C48.2443 13.2273 47.9555 13.3101 47.7116 13.4759C47.4702 13.6392 47.2843 13.8523 47.1541 14.1151C47.0239 14.3778 46.9588 14.6596 46.9588 14.9602V15.4432C46.9588 15.8551 47.0298 16.2043 47.1719 16.4908C47.3163 16.7749 47.5163 16.9915 47.772 17.1406C48.0277 17.2874 48.3248 17.3608 48.6634 17.3608C48.8835 17.3608 49.0824 17.33 49.2599 17.2685C49.4399 17.2045 49.5949 17.1098 49.7251 16.9844C49.8554 16.8565 49.956 16.6979 50.027 16.5085L50.8366 16.7358C50.7514 17.0104 50.6082 17.2519 50.407 17.4602C50.2057 17.6662 49.9571 17.8272 49.6612 17.9432C49.3653 18.0568 49.0327 18.1136 48.6634 18.1136ZM54.4126 18.1136C53.9013 18.1136 53.4609 17.9929 53.0916 17.7514C52.7223 17.5099 52.4382 17.1773 52.2393 16.7536C52.0405 16.3298 51.9411 15.8456 51.9411 15.3011C51.9411 14.7472 52.0429 14.2583 52.2464 13.8345C52.4524 13.4084 52.7389 13.0758 53.1058 12.8366C53.4751 12.5952 53.906 12.4744 54.3984 12.4744C54.782 12.4744 55.1276 12.5455 55.4354 12.6875C55.7431 12.8295 55.9953 13.0284 56.1918 13.2841C56.3883 13.5398 56.5102 13.8381 56.5575 14.179H55.7195C55.6555 13.9304 55.5135 13.7102 55.2933 13.5185C55.0755 13.3243 54.782 13.2273 54.4126 13.2273C54.0859 13.2273 53.7995 13.3125 53.5533 13.483C53.3094 13.651 53.1188 13.889 52.9815 14.1967C52.8466 14.5021 52.7791 14.8608 52.7791 15.2727C52.7791 15.6941 52.8454 16.0611 52.978 16.3736C53.1129 16.6861 53.3023 16.9287 53.5462 17.1016C53.7924 17.2744 54.0812 17.3608 54.4126 17.3608C54.6304 17.3608 54.8281 17.3229 55.0057 17.2472C55.1832 17.1714 55.3336 17.0625 55.4567 16.9205C55.5798 16.7784 55.6674 16.608 55.7195 16.4091H56.5575C56.5102 16.7311 56.393 17.0211 56.206 17.2791C56.0213 17.5348 55.7763 17.7384 55.4709 17.8899C55.1679 18.0391 54.8151 18.1136 54.4126 18.1136ZM60.9077 14.4915V15.2727H57.7259V14.4915H60.9077ZM61.7866 13.3267V12.5455H66.2184V13.3267H64.4286V18H63.5906V13.3267H61.7866ZM67.4409 20.0455V12.5455H68.2505V13.4119H68.35C68.4115 13.3172 68.4967 13.1965 68.6056 13.0497C68.7169 12.9006 68.8755 12.768 69.0815 12.652C69.2898 12.5336 69.5716 12.4744 69.9267 12.4744C70.3859 12.4744 70.7908 12.5893 71.1412 12.8189C71.4915 13.0485 71.765 13.3741 71.9615 13.7955C72.158 14.2169 72.2562 14.714 72.2562 15.2869C72.2562 15.8646 72.158 16.3653 71.9615 16.7891C71.765 17.2105 71.4927 17.5372 71.1447 17.7692C70.7967 17.9988 70.3954 18.1136 69.9409 18.1136C69.5905 18.1136 69.31 18.0556 69.0993 17.9396C68.8886 17.8213 68.7264 17.6875 68.6127 17.5384C68.4991 17.3868 68.4115 17.2614 68.35 17.1619H68.2789V20.0455H67.4409ZM68.2647 15.2727C68.2647 15.6847 68.3251 16.0481 68.4458 16.3629C68.5666 16.6754 68.743 16.9205 68.975 17.098C69.207 17.2732 69.4911 17.3608 69.8272 17.3608C70.1776 17.3608 70.47 17.2685 70.7044 17.0838C70.9411 16.8968 71.1187 16.6458 71.237 16.331C71.3578 16.0137 71.4181 15.661 71.4181 15.2727C71.4181 14.8892 71.359 14.5436 71.2406 14.2358C71.1246 13.9257 70.9482 13.6806 70.7115 13.5007C70.4771 13.3184 70.1824 13.2273 69.8272 13.2273C69.4863 13.2273 69.1999 13.3137 68.9679 13.4865C68.7359 13.657 68.5607 13.8961 68.4423 14.2038C68.3239 14.5092 68.2647 14.8655 68.2647 15.2727ZM75.8216 18.1136C75.296 18.1136 74.8426 17.9976 74.4615 17.7656C74.0827 17.5312 73.7903 17.2045 73.5843 16.7855C73.3807 16.3641 73.2789 15.8741 73.2789 15.3153C73.2789 14.7566 73.3807 14.2642 73.5843 13.8381C73.7903 13.4096 74.0768 13.0758 74.4437 12.8366C74.813 12.5952 75.2439 12.4744 75.7363 12.4744C76.0204 12.4744 76.301 12.5218 76.5779 12.6165C76.8549 12.7112 77.1071 12.8651 77.3343 13.0781C77.5616 13.2888 77.7427 13.5682 77.8777 13.9162C78.0126 14.2642 78.0801 14.6927 78.0801 15.2017V15.5568H73.8755V14.8324H77.2278C77.2278 14.5246 77.1663 14.25 77.0431 14.0085C76.9224 13.767 76.7496 13.5765 76.5247 13.4368C76.3021 13.2971 76.0394 13.2273 75.7363 13.2273C75.4025 13.2273 75.1137 13.3101 74.8699 13.4759C74.6284 13.6392 74.4425 13.8523 74.3123 14.1151C74.1821 14.3778 74.117 14.6596 74.117 14.9602V15.4432C74.117 15.8551 74.188 16.2043 74.3301 16.4908C74.4745 16.7749 74.6745 16.9915 74.9302 17.1406C75.1859 17.2874 75.483 17.3608 75.8216 17.3608C76.0417 17.3608 76.2406 17.33 76.4181 17.2685C76.5981 17.2045 76.7531 17.1098 76.8833 16.9844C77.0136 16.8565 77.1142 16.6979 77.1852 16.5085L77.9949 16.7358C77.9096 17.0104 77.7664 17.2519 77.5652 17.4602C77.3639 17.6662 77.1154 17.8272 76.8194 17.9432C76.5235 18.0568 76.1909 18.1136 75.8216 18.1136ZM83.0055 14.8892V15.6705H79.9941V14.8892H83.0055ZM80.193 12.5455V18H79.3549V12.5455H80.193ZM83.6447 12.5455V18H82.8066V12.5455H83.6447ZM87.4622 18.1136C86.9366 18.1136 86.4833 17.9976 86.1021 17.7656C85.7233 17.5312 85.4309 17.2045 85.225 16.7855C85.0214 16.3641 84.9196 15.8741 84.9196 15.3153C84.9196 14.7566 85.0214 14.2642 85.225 13.8381C85.4309 13.4096 85.7174 13.0758 86.0843 12.8366C86.4537 12.5952 86.8845 12.4744 87.377 12.4744C87.661 12.4744 87.9416 12.5218 88.2186 12.6165C88.4956 12.7112 88.7477 12.8651 88.975 13.0781C89.2022 13.2888 89.3833 13.5682 89.5183 13.9162C89.6532 14.2642 89.7207 14.6927 89.7207 15.2017V15.5568H85.5162V14.8324H88.8684C88.8684 14.5246 88.8069 14.25 88.6838 14.0085C88.563 13.767 88.3902 13.5765 88.1653 13.4368C87.9428 13.2971 87.68 13.2273 87.377 13.2273C87.0431 13.2273 86.7543 13.3101 86.5105 13.4759C86.269 13.6392 86.0832 13.8523 85.9529 14.1151C85.8227 14.3778 85.7576 14.6596 85.7576 14.9602V15.4432C85.7576 15.8551 85.8287 16.2043 85.9707 16.4908C86.1151 16.7749 86.3152 16.9915 86.5708 17.1406C86.8265 17.2874 87.1236 17.3608 87.4622 17.3608C87.6824 17.3608 87.8812 17.33 88.0588 17.2685C88.2387 17.2045 88.3938 17.1098 88.524 16.9844C88.6542 16.8565 88.7548 16.6979 88.8258 16.5085L89.6355 16.7358C89.5502 17.0104 89.407 17.2519 89.2058 17.4602C89.0046 17.6662 88.756 17.8272 88.46 17.9432C88.1641 18.0568 87.8315 18.1136 87.4622 18.1136ZM90.9956 20.0455V12.5455H91.8052V13.4119H91.9047C91.9662 13.3172 92.0514 13.1965 92.1603 13.0497C92.2716 12.9006 92.4302 12.768 92.6362 12.652C92.8445 12.5336 93.1262 12.4744 93.4814 12.4744C93.9406 12.4744 94.3455 12.5893 94.6958 12.8189C95.0462 13.0485 95.3197 13.3741 95.5162 13.7955C95.7127 14.2169 95.8109 14.714 95.8109 15.2869C95.8109 15.8646 95.7127 16.3653 95.5162 16.7891C95.3197 17.2105 95.0474 17.5372 94.6994 17.7692C94.3514 17.9988 93.9501 18.1136 93.4956 18.1136C93.1452 18.1136 92.8646 18.0556 92.6539 17.9396C92.4432 17.8213 92.2811 17.6875 92.1674 17.5384C92.0538 17.3868 91.9662 17.2614 91.9047 17.1619H91.8336V20.0455H90.9956ZM91.8194 15.2727C91.8194 15.6847 91.8798 16.0481 92.0005 16.3629C92.1213 16.6754 92.2976 16.9205 92.5297 17.098C92.7617 17.2732 93.0458 17.3608 93.3819 17.3608C93.7323 17.3608 94.0247 17.2685 94.2591 17.0838C94.4958 16.8968 94.6734 16.6458 94.7917 16.331C94.9125 16.0137 94.9728 15.661 94.9728 15.2727C94.9728 14.8892 94.9136 14.5436 94.7953 14.2358C94.6793 13.9257 94.5029 13.6806 94.2662 13.5007C94.0318 13.3184 93.737 13.2273 93.3819 13.2273C93.041 13.2273 92.7546 13.3137 92.5225 13.4865C92.2905 13.657 92.1154 13.8961 91.997 14.2038C91.8786 14.5092 91.8194 14.8655 91.8194 15.2727Z" fill="#161616"></path></svg> 