<?xml version="1.0" encoding="UTF-8"?> <svg xmlns="http://www.w3.org/2000/svg" width="60" height="60" viewBox="0 0 60 60" fill="none"><rect width="60" height="60" rx="30" fill="#C4F44A"></rect><path d="M20.2818 25.8906V26.5498L17.9429 33H16.7418L19.0855 26.8477H16.0826V25.8906H20.2818ZM24.9064 30.5146L26.342 25.8906H27.6457L25.6486 31.7012C25.577 31.8835 25.4989 32.0592 25.4142 32.2285C25.3328 32.3978 25.2336 32.5492 25.1164 32.6826C24.9992 32.8128 24.856 32.9154 24.6867 32.9902C24.5207 33.0651 24.3172 33.1025 24.0763 33.1025C24.008 33.1025 23.9282 33.0993 23.8371 33.0928C23.7492 33.0863 23.6841 33.0814 23.6418 33.0781L23.6369 32.0918C23.6694 32.0951 23.7264 32.0999 23.8078 32.1064C23.8924 32.1097 23.951 32.1113 23.9836 32.1113C24.1333 32.1113 24.2472 32.0804 24.3254 32.0186C24.4067 31.9535 24.4702 31.8672 24.5158 31.7598C24.5614 31.6523 24.6021 31.5335 24.6379 31.4033L24.9064 30.5146ZM24.0324 25.8906L25.3605 29.7773L25.6877 31.1006L24.7697 31.1348L22.7433 25.8906H24.0324ZM30.6269 30.3633H29.1279V29.3721H30.6269C30.8743 29.3721 31.0729 29.32 31.2226 29.2158C31.3724 29.1117 31.4814 28.9684 31.5498 28.7861C31.6214 28.6038 31.6572 28.3971 31.6572 28.166C31.6572 27.9447 31.6214 27.7363 31.5498 27.541C31.4814 27.3457 31.3724 27.1878 31.2226 27.0674C31.0729 26.9469 30.8743 26.8867 30.6269 26.8867H29.4648V33H28.2783V25.8906H30.6269C31.0989 25.8906 31.4993 25.9883 31.8281 26.1836C32.1601 26.3789 32.414 26.6475 32.5898 26.9893C32.7656 27.3278 32.8535 27.7168 32.8535 28.1562C32.8535 28.6152 32.7656 29.0091 32.5898 29.3379C32.414 29.6667 32.1601 29.9206 31.8281 30.0996C31.4993 30.2754 31.0989 30.3633 30.6269 30.3633ZM38.4275 28.8643V30.0752C38.4275 30.5765 38.3689 31.016 38.2517 31.3936C38.1378 31.7712 37.9718 32.0869 37.7537 32.3408C37.5388 32.5915 37.2784 32.7803 36.9724 32.9072C36.6697 33.0342 36.3312 33.0977 35.9568 33.0977C35.5857 33.0977 35.2472 33.0342 34.9412 32.9072C34.6384 32.7803 34.3764 32.5915 34.155 32.3408C33.9369 32.0869 33.7677 31.7712 33.6472 31.3936C33.53 31.016 33.4715 30.5765 33.4715 30.0752V28.8643C33.4715 28.3564 33.53 27.9121 33.6472 27.5312C33.7644 27.1471 33.9321 26.8265 34.1502 26.5693C34.3715 26.3122 34.6336 26.1185 34.9363 25.9883C35.2423 25.8581 35.5792 25.793 35.947 25.793C36.3214 25.793 36.6599 25.8581 36.9627 25.9883C37.2687 26.1185 37.5307 26.3122 37.7488 26.5693C37.9669 26.8265 38.1345 27.1471 38.2517 27.5312C38.3689 27.9121 38.4275 28.3564 38.4275 28.8643ZM37.2508 30.0752V28.8545C37.2508 28.4932 37.2215 28.1839 37.1629 27.9268C37.1075 27.6663 37.0245 27.4548 36.9138 27.292C36.8032 27.126 36.6664 27.0039 36.5037 26.9258C36.3442 26.8444 36.1586 26.8037 35.947 26.8037C35.742 26.8037 35.558 26.8444 35.3953 26.9258C35.2358 27.0039 35.0991 27.126 34.9851 27.292C34.8744 27.4548 34.7898 27.6663 34.7312 27.9268C34.6759 28.1839 34.6482 28.4932 34.6482 28.8545V30.0752C34.6482 30.43 34.6775 30.736 34.7361 30.9932C34.7947 31.2471 34.8793 31.4554 34.99 31.6182C35.1039 31.7777 35.2423 31.8965 35.405 31.9746C35.5678 32.0527 35.7517 32.0918 35.9568 32.0918C36.1651 32.0918 36.3507 32.0527 36.5134 31.9746C36.6762 31.8965 36.8113 31.7777 36.9187 31.6182C37.0294 31.4554 37.1124 31.2471 37.1677 30.9932C37.2231 30.736 37.2508 30.43 37.2508 30.0752ZM40.5396 25.8906V33H39.3531V25.8906H40.5396ZM44.0894 25.8906L41.7164 29.958H40.2027L40.0269 28.8643H41.0523L42.6441 25.8906H44.0894ZM42.8541 33L41.0865 29.7627L41.8482 28.8057L44.275 33H42.8541Z" fill="#161616"></path></svg> 