<?xml version="1.0" encoding="UTF-8"?> <svg xmlns="http://www.w3.org/2000/svg" width="184" height="208" viewBox="0 0 184 208" fill="none"><path d="M61.5007 2.80003C41.1007 9.70003 26.9007 27.1 23.8007 49.1C22.5007 58 23.3007 60 28.1007 60C31.3007 60 31.1007 60.3 33.0007 48.5C37.7007 19.4 68.2007 1.40003 96.0007 11.5C103.301 14.1 108.401 17.6 114.301 23.9C122.301 32.6 126.901 43.3 127.001 53.5C127.001 55.8 127.501 58.1 128.201 58.8C129.901 60.5 134.701 60.3 135.401 58.4C137.401 53.3 134.901 40.4 129.801 30C125.901 21.8 114.901 10.7 106.401 6.30003C93.0007 -0.799966 75.8007 -2.09997 61.5007 2.80003Z" fill="#222222"></path><path d="M70.0004 33.6C65.5004 35.6 60.4004 40.5 57.7004 45.5C55.5004 49.4 55.5004 50.5 55.2004 98.5L54.9004 147.4L48.1004 136.8C39.2004 123.2 35.3004 120.5 23.9004 120.5C17.2004 120.5 15.8004 120.9 11.4004 123.5C4.60038 127.8 0.700376 134.3 0.200376 142.5C0.000376354 146 0.300376 150.3 0.900376 152.2C1.50038 154 8.90038 167.2 17.3004 181.5C29.4004 202.2 33.0004 207.6 34.8004 207.8C37.6004 208.2 40.0004 206.4 40.0004 204C40.0004 203.1 33.4004 191.1 25.4004 177.4C9.90038 151.2 8.00038 147.4 8.00038 143.8C8.00038 140.4 11.8004 133.3 14.7004 131.4C20.7004 127.5 28.4004 127.9 33.5004 132.3C34.9004 133.5 40.7004 141.9 46.3004 151C55.3004 165.5 56.9004 167.5 59.4004 167.8C61.0004 168 62.6004 167.6 63.1004 166.8C63.6004 166.1 64.0004 140.3 64.0004 109.6C64.0004 55.1 64.1004 53.5 66.1004 49.4C71.3004 38.5 85.9004 37.7 92.7004 48C95.0004 51.3 95.0004 51.6 95.0004 88.4C95.0004 116 95.3004 125.9 96.2004 126.8C97.9004 128.5 102.7 128.3 103.4 126.4C103.7 125.5 104 121.4 104 117.2C104 111.6 104.5 108.5 106.1 105.4C111.3 94.5 125.9 93.7 132.7 104C134.8 107 135 108.5 135 120.4C135 134.6 135.4 136 140.1 136C143.1 136 144 134.5 144 129.2C144 127.3 144.9 123.7 146.1 121.4C151.3 110.5 165.9 109.7 172.7 120C174.9 123.2 175 124 175 149C175 177.1 174 185.4 169.3 198.1C166.4 205.9 167 208 172 208C174.4 208 175.1 207.3 176.9 202.9C182.6 189.8 183.3 184.5 183.8 153.1C184.2 121 183.9 118.6 178.3 111.9C171.8 104.2 158.1 101.6 148.8 106.3L144.3 108.6L142.6 103.8C140.4 97.6 136.8 93.4 130.9 90.5C124.3 87.1 115.2 87.1 108.7 90.4L104 92.7V71.6C104 52.5 103.8 50.1 101.9 46C99.3004 40.2 96.6004 37.3 90.8004 34.4C85.2004 31.6 75.6004 31.2 70.0004 33.6Z" fill="#222222"></path></svg> 