<?xml version="1.0" encoding="UTF-8"?> <svg xmlns="http://www.w3.org/2000/svg" width="13" height="13" viewBox="0 0 13 13" fill="none"><path d="M2.40865 0.0128436C2.33518 0.0322985 2.23362 0.120926 2.19473 0.198746C2.16448 0.265758 2.16016 0.408427 2.16016 1.48493V2.6933L2.20986 2.76463C2.23579 2.80354 2.28548 2.85758 2.3179 2.88136C2.37624 2.9246 2.40433 2.92676 3.0353 2.92676C3.6641 2.92676 3.69435 2.9246 3.75053 2.88136C3.78295 2.85758 3.83049 2.81003 3.85425 2.7776C3.89963 2.71924 3.89963 2.69114 3.90611 1.4979C3.9126 0.136058 3.91692 0.183615 3.7635 0.066885L3.68787 0.00852027L3.06987 0.00419696C2.73062 0.00419696 2.43242 0.00635861 2.40865 0.0128436Z" fill="#C4F44A"></path><path d="M8.69773 0.0128436C8.67396 0.0193286 8.6221 0.0474301 8.58321 0.0776933C8.44491 0.181453 8.44923 0.131735 8.44923 1.47412V2.6933L8.49893 2.76463C8.52486 2.80354 8.57456 2.85758 8.60697 2.88136C8.66532 2.9246 8.69341 2.92676 9.32221 2.92676H9.97695L10.0526 2.86839C10.2038 2.75166 10.1995 2.79706 10.1995 1.46548V0.272242L10.1433 0.174968C10.0439 0.00635861 10.0029 -0.00228802 9.32437 -0.000126358C9.00457 0.0020353 8.7215 0.00852027 8.69773 0.0128436Z" fill="#C4F44A"></path><path d="M0.712932 1.35122C0.464436 1.41823 0.231065 1.61278 0.107897 1.85704C0.00849868 2.05376 -0.00446636 2.20075 0.004177 3.05676L0.0106595 3.83496H6.17986H12.3491V2.99191C12.3491 2.08834 12.3447 2.04727 12.2345 1.82678C12.1265 1.60629 11.8521 1.39661 11.5971 1.33825C11.5474 1.32744 11.2557 1.31663 10.951 1.31663H10.3935V2.01485V2.71306L10.3373 2.82547C10.2746 2.953 10.1882 3.03299 10.0478 3.09567C9.957 3.13675 9.90514 3.14107 9.34549 3.14107C8.66698 3.14323 8.59351 3.13242 8.44874 3.00921C8.4012 2.96597 8.33421 2.88383 8.3018 2.82114L8.24346 2.7109L8.23697 2.01268L8.23049 1.31663H6.17769C4.55274 1.31663 4.12706 1.32311 4.1249 1.34257C4.1249 1.3577 4.12274 1.66682 4.12058 2.02998C4.11625 2.67415 4.11409 2.69144 4.06439 2.80385C4.00605 2.93139 3.90449 3.03082 3.76188 3.09784C3.66896 3.13891 3.6279 3.14323 3.03583 3.14107C2.43296 3.13891 2.40487 3.13675 2.29467 3.08919C2.16718 3.03515 2.06778 2.93139 2.00079 2.78872C1.95758 2.69577 1.95541 2.64821 1.94893 2.00188L1.94245 1.31663L1.38711 1.31879C0.970072 1.31879 0.801527 1.32744 0.712932 1.35122Z" fill="#C4F44A"></path><path d="M0 7.75181C0 10.99 0.00432168 11.4828 0.0324126 11.6039C0.123168 11.9822 0.434329 12.274 0.821119 12.341C0.922678 12.3583 2.46336 12.3626 6.26643 12.3583L11.5713 12.3518L11.6923 12.3064C11.8544 12.2437 11.9624 12.1724 12.0813 12.047C12.2023 11.9173 12.2412 11.8546 12.3017 11.6968L12.3492 11.5736L12.3557 7.80585L12.36 4.04025H6.18H0V7.75181ZM5.38913 4.73198C5.50798 4.77737 5.51446 4.80547 5.51662 5.47342C5.52094 6.02897 5.51662 6.0895 5.48205 6.14354C5.46044 6.17813 5.41722 6.21271 5.38697 6.22568C5.3524 6.23865 5.07581 6.24514 4.68254 6.24081L4.03645 6.23433L3.98459 6.1738L3.93273 6.11328V5.48639C3.93273 5.09946 3.94137 4.84222 3.95434 4.81844C4.00836 4.71901 4.05806 4.71252 4.71495 4.71036C5.05852 4.71036 5.35888 4.71901 5.38913 4.73198ZM8.31923 4.74278C8.3538 4.76008 8.3927 4.79466 8.40566 4.81628C8.41863 4.84222 8.42727 5.0973 8.42727 5.48639V6.11328L8.37541 6.1738L8.32355 6.23433H7.64073H6.9579L6.89956 6.1738L6.83906 6.11544V5.47991C6.83906 4.87465 6.84122 4.84222 6.88227 4.79683C6.90604 4.77089 6.94494 4.74062 6.96871 4.72981C6.99248 4.72117 7.29283 4.71252 7.63424 4.71252C8.14852 4.71036 8.26737 4.71684 8.31923 4.74278ZM11.2256 4.74062C11.2645 4.75792 11.3077 4.79034 11.3206 4.81412C11.353 4.87248 11.353 6.08085 11.3228 6.13922C11.2688 6.23865 11.2126 6.24514 10.5319 6.24514H9.89232L9.81885 6.17164L9.74538 6.09814V5.48856C9.74538 4.82277 9.75187 4.77953 9.87503 4.73414C9.90529 4.72333 10.2035 4.71252 10.5406 4.71252C11.0203 4.71036 11.1672 4.71684 11.2256 4.74062ZM2.51954 7.29354C2.61029 7.35623 2.61678 7.41676 2.61029 8.05877L2.60381 8.67052L2.54331 8.7224L2.4828 8.77428H1.82375C1.15173 8.77428 1.10419 8.76995 1.04369 8.68997C1.02424 8.66403 1.01776 8.48461 1.01559 8.02202V7.38649L1.07826 7.3238L1.14092 7.26112H1.80862C2.35748 7.26112 2.4828 7.2676 2.51954 7.29354ZM5.45396 7.31516C5.48421 7.34326 5.51014 7.38865 5.5123 7.41675C5.5123 7.45783 5.5123 8.55163 5.51014 8.64025C5.51014 8.65538 5.48421 8.69213 5.45396 8.72023L5.39562 8.77428H4.72359C4.09695 8.77428 4.04725 8.76995 3.99755 8.73104C3.92841 8.67916 3.91976 8.58837 3.92841 7.90745L3.93489 7.37352L3.99107 7.31732L4.04725 7.26112H4.72143H5.39562L5.45396 7.31516ZM8.36677 7.31948L8.42727 7.37785V8.01553V8.65322L8.36893 8.71375L8.31059 8.77428H7.64289C7.2064 8.77428 6.96222 8.76563 6.93197 8.7505C6.84122 8.70078 6.82825 8.61648 6.82825 8.0177C6.82825 7.4254 6.84122 7.33677 6.92981 7.28489C6.95574 7.26976 7.20208 7.26328 7.63641 7.26112H8.30627L8.36677 7.31948ZM11.2817 7.3238L11.3444 7.38649V8.0177V8.6489L11.2817 8.71159L11.2191 8.77428H10.5471H9.8772L9.81669 8.7224L9.75619 8.67052V8.0177V7.36488L9.81669 7.313L9.8772 7.26112H10.5471H11.2191L11.2817 7.3238ZM2.54331 9.86159L2.60381 9.91995L2.61029 10.5101C2.61894 11.1716 2.61029 11.2321 2.50225 11.2904C2.43743 11.325 2.36396 11.3272 1.77621 11.3207L1.11931 11.3142L1.06745 11.2537L1.01559 11.1932V10.5663C1.01559 10.1794 1.02424 9.92212 1.0372 9.89834C1.09122 9.79674 1.1366 9.79026 1.83023 9.79674L2.48496 9.80106L2.54331 9.86159ZM5.4021 9.81836C5.51878 9.87672 5.52743 9.93076 5.52094 10.5793C5.51446 11.2278 5.50798 11.258 5.38697 11.3056C5.3524 11.3185 5.07797 11.325 4.68686 11.3207L4.04509 11.3142L3.98891 11.2623L3.93273 11.2105V10.5685C3.93273 9.88104 3.93705 9.85727 4.04941 9.81187C4.12504 9.78161 5.33943 9.78593 5.4021 9.81836ZM8.30843 9.82052C8.34732 9.83781 8.39054 9.87024 8.4035 9.89401C8.41863 9.92428 8.42727 10.1577 8.42727 10.5663V11.1932L8.37541 11.2537L8.32355 11.3142L7.65153 11.3207L6.98167 11.3272L6.91036 11.2623L6.83906 11.1997V10.562C6.83906 9.95454 6.84122 9.92212 6.88227 9.87672C6.90604 9.85078 6.94494 9.82052 6.96871 9.80971C6.99248 9.80106 7.28635 9.79242 7.62344 9.79242C8.10315 9.79026 8.25008 9.79674 8.30843 9.82052Z" fill="#C4F44A"></path></svg> 