<?xml version="1.0" encoding="UTF-8"?> <svg xmlns="http://www.w3.org/2000/svg" width="123" height="122" viewBox="0 0 123 122" fill="none"><circle cx="61.0684" cy="61" r="61" fill="white"></circle><g opacity="0.77"><path d="M10.1291 40.2368L15.2289 42.1718L14.9316 42.9554L9.83182 41.0204L10.1291 40.2368ZM12.4436 41.4644L13.174 41.7416C13.1733 41.9438 13.1651 42.1421 13.1497 42.3362C13.1321 42.5296 13.1011 42.728 13.0568 42.9315C13.0103 43.1341 12.9434 43.3506 12.856 43.5808C12.6368 44.1585 12.3048 44.563 11.86 44.7943C11.4161 45.0234 10.882 45.0195 10.2578 44.7827L8.6243 44.1629L8.9216 43.3793L10.5551 43.9991C10.8163 44.0982 11.0499 44.1299 11.2559 44.0941C11.462 44.0583 11.6382 43.9708 11.7848 43.8314C11.9314 43.692 12.045 43.5161 12.1256 43.3036C12.2516 42.9716 12.3355 42.6603 12.3773 42.3698C12.4178 42.0763 12.4399 41.7745 12.4436 41.4644Z" fill="#161616"></path><path d="M18.2147 36.4686C17.9479 36.9214 17.6178 37.2531 17.2244 37.4637C16.8302 37.6711 16.4003 37.7571 15.9347 37.7218C15.4683 37.6833 14.9944 37.5223 14.513 37.2386C14.0317 36.955 13.6591 36.6173 13.3953 36.2256C13.1307 35.8306 12.9885 35.4143 12.9688 34.9768C12.9482 34.536 13.0629 34.1035 13.3129 33.6792C13.4571 33.4345 13.6404 33.2168 13.8626 33.0262C14.0848 32.8357 14.3453 32.6966 14.6443 32.6089C14.9412 32.5201 15.2738 32.5058 15.6421 32.5663C16.0105 32.6267 16.4139 32.7861 16.8524 33.0445L17.1584 33.2247L15.024 36.8472L14.3998 36.4794L16.1016 33.5913C15.8364 33.435 15.5686 33.3486 15.298 33.3321C15.0287 33.3136 14.7768 33.3657 14.5423 33.4886C14.3089 33.6094 14.1154 33.8003 13.9615 34.0614C13.7921 34.349 13.7169 34.6399 13.7358 34.9341C13.754 35.2251 13.8432 35.4934 14.0035 35.739C14.1638 35.9846 14.3735 36.1837 14.6325 36.3363L15.0486 36.5815C15.4035 36.7906 15.7404 36.9067 16.0594 36.9297C16.3774 36.9495 16.6656 36.8871 16.9239 36.7426C17.1802 36.5968 17.3942 36.3781 17.5661 36.0864C17.6779 35.8967 17.7523 35.7097 17.7894 35.5255C17.8257 35.338 17.8228 35.1564 17.7808 34.9805C17.7368 34.8034 17.6512 34.6362 17.5241 34.4789L18.1309 33.8967C18.3242 34.1095 18.4596 34.3555 18.5369 34.6346C18.6122 34.9126 18.6247 35.2085 18.5744 35.5223C18.5221 35.835 18.4022 36.1504 18.2147 36.4686Z" fill="#161616"></path><path d="M21.1161 31.68L20.5197 31.1753L20.6482 31.0235C20.7537 30.8988 20.8172 30.7742 20.8388 30.6498C20.8585 30.5239 20.8274 30.3828 20.7456 30.2267C20.6634 30.0673 20.5217 29.8792 20.3206 29.6624C20.1191 29.4424 19.8494 29.1784 19.5113 28.8706L17.7321 27.2349L20.0811 24.459L24.2449 27.9824L23.7036 28.6221L20.1361 25.6034L18.8423 27.1323L20.2728 28.4544C20.6022 28.7579 20.8771 29.0432 21.0976 29.3104C21.3178 29.5743 21.4758 29.8274 21.5715 30.0697C21.6689 30.3102 21.6968 30.5447 21.6554 30.7733C21.6139 31.0018 21.4953 31.2318 21.2996 31.4631L21.1161 31.68Z" fill="#161616"></path><path d="M28.8013 23.7505C28.4242 24.0672 28.0181 24.2554 27.5827 24.315C27.1492 24.3731 26.7171 24.3078 26.2866 24.1192C25.8578 23.929 25.4622 23.6182 25.0998 23.1868C24.7343 22.7518 24.4941 22.3058 24.3792 21.8488C24.2662 21.3903 24.2757 20.9526 24.4077 20.5356C24.5415 20.117 24.797 19.7494 25.174 19.4327C25.551 19.1159 25.9563 18.9285 26.3898 18.8704C26.8252 18.8108 27.258 18.877 27.6883 19.069C28.1204 19.2594 28.5192 19.5722 28.8846 20.0072C29.2471 20.4386 29.484 20.8827 29.5956 21.3393C29.7089 21.7945 29.6987 22.2313 29.5649 22.6498C29.4329 23.0668 29.1783 23.4337 28.8013 23.7505ZM28.317 23.174C28.6034 22.9334 28.7774 22.6621 28.839 22.3599C28.9005 22.0578 28.8752 21.7497 28.763 21.4358C28.6508 21.122 28.4775 20.8254 28.243 20.5463C28.0084 20.2671 27.7455 20.0443 27.4542 19.8778C27.1628 19.7114 26.8622 19.6315 26.5525 19.6382C26.2427 19.6449 25.9446 19.7685 25.6582 20.0091C25.3718 20.2497 25.1986 20.522 25.1386 20.826C25.0786 21.1299 25.1054 21.4397 25.2191 21.7555C25.3328 22.0712 25.5069 22.3686 25.7415 22.6477C25.976 22.9269 26.2381 23.1488 26.528 23.3134C26.8178 23.4781 27.1168 23.5562 27.4251 23.5477C27.7333 23.5392 28.0306 23.4146 28.317 23.174Z" fill="#161616"></path><path d="M34.2613 19.515L31.5091 14.8058L33.4345 13.6805C33.9414 13.3842 34.4109 13.2634 34.8431 13.3179C35.2753 13.3724 35.6013 13.5877 35.8211 13.9638C35.9884 14.25 36.0332 14.5213 35.9555 14.7778C35.8766 15.0323 35.7205 15.2648 35.487 15.4753C35.6751 15.3983 35.8795 15.3611 36.1004 15.3636C36.3233 15.3649 36.5391 15.4198 36.7477 15.5282C36.9552 15.6345 37.1312 15.8114 37.2758 16.0587C37.4167 16.2999 37.4814 16.5513 37.4699 16.8131C37.4583 17.0749 37.3704 17.3278 37.2059 17.572C37.0415 17.8162 36.7999 18.0314 36.481 18.2178L34.2613 19.515ZM34.561 18.4514L36.094 17.5555C36.3434 17.4098 36.5039 17.2364 36.5757 17.0355C36.6474 16.8345 36.6236 16.6318 36.5041 16.4274C36.362 16.1842 36.1798 16.0343 35.9575 15.9777C35.734 15.9191 35.4976 15.9627 35.2483 16.1084L33.7153 17.0043L34.561 18.4514ZM33.3498 16.3789L34.5884 15.655C34.7826 15.5415 34.9336 15.4175 35.0416 15.2832C35.1483 15.1468 35.2092 15.007 35.2242 14.8638C35.2401 14.7174 35.2075 14.5747 35.1262 14.4357C35.0104 14.2375 34.8368 14.1305 34.6055 14.1149C34.3731 14.0972 34.1117 14.1731 33.8215 14.3427L32.5829 15.0666L33.3498 16.3789Z" fill="#161616"></path><path d="M43.2641 15.1436C42.7721 15.3283 42.3068 15.379 41.8685 15.2958C41.4315 15.2094 41.0429 15.0063 40.7029 14.6864C40.3642 14.3634 40.0966 13.9404 39.9003 13.4173C39.704 12.8942 39.6262 12.3974 39.6671 11.9269C39.7093 11.4534 39.8602 11.0402 40.1198 10.6874C40.3807 10.3315 40.7416 10.0671 41.2026 9.89403C41.4686 9.79419 41.7479 9.73994 42.0405 9.73126C42.3331 9.72258 42.6232 9.77805 42.9109 9.89766C43.1977 10.0151 43.4654 10.213 43.7141 10.4914C43.9627 10.7697 44.1764 11.1472 44.3553 11.6237L44.4801 11.9562L40.5437 13.4337L40.2891 12.7555L43.4276 11.5775C43.3195 11.2893 43.1653 11.0539 42.9652 10.871C42.7673 10.6874 42.5385 10.5697 42.2789 10.518C42.0215 10.4654 41.7509 10.4924 41.4672 10.5989C41.1547 10.7162 40.9134 10.8952 40.7433 11.1361C40.5747 11.3739 40.4755 11.6386 40.446 11.9304C40.4164 12.2222 40.4545 12.5088 40.5601 12.7903L40.7298 13.2425C40.8746 13.6281 41.0638 13.9301 41.2975 14.1484C41.5325 14.3636 41.7959 14.4961 42.0877 14.5459C42.3786 14.5935 42.6826 14.5578 42.9995 14.4388C43.2057 14.3614 43.381 14.2627 43.5256 14.1427C43.6716 14.0196 43.7835 13.8765 43.8613 13.7133C43.9383 13.5478 43.9768 13.364 43.9767 13.1617L44.8146 13.0899C44.8313 13.377 44.7821 13.6534 44.6669 13.9192C44.5509 14.1827 44.3747 14.4208 44.1384 14.6334C43.9013 14.8438 43.6099 15.0138 43.2641 15.1436Z" fill="#161616"></path><path d="M49.8101 12.9939L48.7839 7.63671L49.607 7.47904L50.0533 9.80884L50.5974 9.70462L52.0763 7.00604L53.1366 6.80294L51.4686 9.79807L54.1907 12.1547L53.1304 12.3578L50.9397 10.4345L50.2003 10.5761L50.6332 12.8362L49.8101 12.9939Z" fill="#161616"></path><path d="M64.9419 11.0439L65.9455 5.68249L70.162 6.4718L69.1584 11.8332L68.3347 11.679L69.1945 7.08551L66.6255 6.6046L65.7656 11.1981L64.9419 11.0439Z" fill="#161616"></path><path d="M72.8406 14.9233L75.4466 7.89056L76.2058 8.17189L75.9048 8.98438L75.998 9.01893C76.0886 8.95152 76.2105 8.86791 76.3636 8.76812C76.5198 8.66693 76.7146 8.59773 76.948 8.56052C77.1845 8.52191 77.4692 8.5643 77.8022 8.68769C78.2329 8.84728 78.5726 9.09561 78.8213 9.43268C79.0701 9.76976 79.2134 10.17 79.2512 10.6334C79.289 11.0969 79.2084 11.5972 79.0094 12.1344C78.8086 12.676 78.5425 13.1114 78.211 13.4405C77.8804 13.7674 77.5115 13.9791 77.1046 14.0758C76.6985 14.1702 76.2823 14.1384 75.8561 13.9805C75.5275 13.8587 75.2846 13.7069 75.1274 13.5249C74.9709 13.3407 74.8653 13.1589 74.8106 12.9795C74.7567 12.798 74.7182 12.6499 74.695 12.5353L74.6284 12.5106L73.6265 15.2145L72.8406 14.9233ZM75.2715 10.7342C75.1284 11.1204 75.0587 11.4822 75.0625 11.8194C75.0672 12.1543 75.1474 12.4454 75.3033 12.6925C75.4599 12.9374 75.6959 13.1182 76.0111 13.235C76.3397 13.3568 76.6459 13.3718 76.9298 13.2801C77.2168 13.187 77.4705 13.0134 77.6909 12.7592C77.9144 12.5037 78.0935 12.1939 78.2284 11.8299C78.3617 11.4702 78.4263 11.1256 78.4222 10.7959C78.4212 10.4647 78.341 10.1737 78.1815 9.92272C78.0251 9.67035 77.7804 9.48247 77.4474 9.35907C77.1277 9.24062 76.8291 9.22211 76.5515 9.30355C76.2747 9.38277 76.0273 9.54611 75.8094 9.79357C75.5923 10.0388 75.413 10.3523 75.2715 10.7342Z" fill="#161616"></path><path d="M82.7292 17.2C82.303 16.9533 81.9878 16.6355 81.7835 16.2465C81.5812 15.8586 81.4955 15.4301 81.5263 14.9611C81.5591 14.4932 81.7167 14.0154 81.9989 13.5277C82.2836 13.036 82.6212 12.6583 83.0117 12.3947C83.4043 12.1323 83.8191 11.9922 84.2561 11.9744C84.6952 11.9577 85.1279 12.0727 85.5541 12.3194C85.9803 12.5661 86.2945 12.8833 86.4967 13.2712C86.701 13.6602 86.7861 14.0897 86.7521 14.5597C86.7201 15.0308 86.5618 15.5122 86.2772 16.004C85.9949 16.4916 85.6581 16.8656 85.2667 17.126C84.8773 17.3875 84.4631 17.5266 84.024 17.5433C83.587 17.5611 83.1554 17.4467 82.7292 17.2ZM83.1063 16.5485C83.43 16.7358 83.7444 16.807 84.0495 16.762C84.3545 16.717 84.6355 16.5883 84.8925 16.376C85.1494 16.1636 85.3692 15.8997 85.5518 15.5841C85.7345 15.2686 85.8545 14.9455 85.9118 14.6149C85.9691 14.2843 85.9419 13.9745 85.8302 13.6855C85.7184 13.3965 85.5007 13.1583 85.1769 12.971C84.8532 12.7836 84.5382 12.7134 84.232 12.7605C83.9257 12.8075 83.6435 12.9382 83.3854 13.1526C83.1273 13.367 82.9069 13.632 82.7243 13.9476C82.5416 14.2631 82.4223 14.5852 82.3661 14.9137C82.31 15.2423 82.3384 15.5501 82.4513 15.837C82.5642 16.1239 82.7826 16.3611 83.1063 16.5485Z" fill="#161616"></path><path d="M93.8224 17.4089L94.4663 17.9452L91.4754 21.5361L93.058 22.8542L96.0489 19.2634L96.6928 19.7998L93.7019 23.3906L95.2845 24.7088L98.2754 21.118L98.9194 21.6543L95.4285 25.8454L90.3314 21.6L93.8224 17.4089Z" fill="#161616"></path><path d="M98.3615 28.2349L98.9557 27.7277L99.0848 27.879C99.1909 28.0032 99.3036 28.086 99.4229 28.1274C99.544 28.1672 99.6882 28.1593 99.8555 28.1036C100.026 28.0483 100.235 27.9388 100.481 27.7753C100.731 27.612 101.035 27.3883 101.393 27.1043L103.294 25.6124L105.655 28.3784L101.506 31.9193L100.962 31.2818L104.517 28.2481L103.216 26.7246L101.681 27.9231C101.328 28.1991 101.002 28.4244 100.703 28.5989C100.407 28.7736 100.132 28.8887 99.8772 28.9441C99.6241 29.0014 99.3881 28.9911 99.1693 28.9134C98.9504 28.8356 98.7426 28.6815 98.5459 28.451L98.3615 28.2349Z" fill="#161616"></path><path d="M105.4 35.2229L110.369 35.3244L110.863 36.1545L106.176 38.9432L105.747 38.223L109.373 36.0661L104.411 35.9768L103.91 35.1345L108.597 32.3457L109.026 33.0659L105.4 35.2229Z" fill="#161616"></path><path d="M110.448 52.0627L115.055 53.084L115.211 53.864L109.401 52.6195L109.267 51.9509L114.163 48.6125L114.316 49.3787L110.448 52.0627ZM114.263 49.114L108.914 50.1818L108.75 49.36L114.099 48.2922L114.263 49.114ZM109.754 54.3886L115.103 53.3208L115.267 54.1426L109.918 55.2104L109.754 54.3886Z" fill="#161616"></path><path d="M109.85 60.6076C109.836 60.1154 109.942 59.6803 110.166 59.3024C110.39 58.9268 110.71 58.6292 111.126 58.4095C111.541 58.1921 112.031 58.0758 112.594 58.0604C113.162 58.045 113.661 58.1344 114.09 58.3288C114.519 58.5255 114.856 58.8053 115.1 59.1681C115.345 59.5332 115.473 59.9619 115.487 60.4542C115.5 60.9464 115.395 61.3803 115.171 61.7559C114.946 62.1338 114.625 62.4315 114.207 62.6489C113.789 62.8687 113.296 62.9863 112.728 63.0018C112.165 63.0171 111.67 62.9264 111.243 62.7296C110.816 62.5352 110.481 62.2554 110.236 61.8902C109.992 61.5274 109.863 61.0999 109.85 60.6076ZM110.602 60.5872C110.613 60.9611 110.717 61.2661 110.915 61.5023C111.113 61.7385 111.37 61.9103 111.686 62.0177C112.001 62.1252 112.341 62.1739 112.706 62.164C113.07 62.1541 113.408 62.0869 113.72 61.9623C114.031 61.8378 114.281 61.6522 114.468 61.4055C114.656 61.1589 114.744 60.8486 114.734 60.4747C114.724 60.1008 114.619 59.7957 114.418 59.5596C114.217 59.3235 113.958 59.1518 113.64 59.0444C113.322 58.937 112.981 58.8883 112.617 58.8982C112.252 58.9081 111.915 58.9753 111.606 59.0998C111.297 59.2242 111.05 59.4098 110.865 59.6564C110.68 59.903 110.592 60.2132 110.602 60.5872Z" fill="#161616"></path><path d="M110.978 67.8005L114.781 71.0012L114.644 71.9573L109.244 71.1822L109.364 70.3526L113.539 70.9522L109.735 67.7655L109.874 66.7953L115.273 67.5705L115.154 68.4001L110.978 67.8005Z" fill="#161616"></path><path d="M105.725 81.9325L110.557 84.462L108.568 88.2626L103.735 85.733L104.124 84.9905L108.264 87.1578L109.476 84.8422L105.336 82.675L105.725 81.9325Z" fill="#161616"></path><path d="M99.7022 88.3509L105.664 92.902L105.172 93.5455L104.484 93.0198L104.423 93.0988C104.461 93.2052 104.505 93.3462 104.556 93.5218C104.607 93.7008 104.616 93.9073 104.583 94.1414C104.551 94.3788 104.427 94.6387 104.212 94.9209C103.933 95.286 103.596 95.5381 103.201 95.6772C102.806 95.8164 102.381 95.8362 101.927 95.7367C101.473 95.6371 101.018 95.4135 100.563 95.0659C100.103 94.7154 99.765 94.3334 99.5474 93.9201C99.3317 93.5082 99.2372 93.0935 99.264 92.6761C99.2926 92.2602 99.4449 91.8716 99.7207 91.5103C99.9333 91.2318 100.15 91.044 100.37 90.9469C100.592 90.8512 100.796 90.8035 100.984 90.8037C101.173 90.8053 101.326 90.8118 101.443 90.8232L101.486 90.7668L99.1937 89.017L99.7022 88.3509ZM102.996 91.9019C102.668 91.6519 102.343 91.4794 102.019 91.3843C101.698 91.2906 101.396 91.2821 101.114 91.3588C100.834 91.4369 100.592 91.6096 100.388 91.8768C100.175 92.1553 100.071 92.4437 100.076 92.742C100.081 93.0437 100.173 93.3371 100.351 93.6223C100.53 93.9107 100.774 94.1728 101.082 94.4084C101.387 94.6411 101.698 94.8038 102.014 94.8965C102.331 94.9924 102.633 95.0009 102.92 94.9219C103.207 94.8463 103.458 94.6673 103.674 94.385C103.88 94.1141 103.986 93.834 103.989 93.5447C103.994 93.2568 103.911 92.9725 103.738 92.6916C103.567 92.4122 103.32 92.149 102.996 91.9019Z" fill="#161616"></path><path d="M94.6285 97.1392C94.9892 96.804 95.3854 96.5956 95.8172 96.5142C96.2473 96.4344 96.6821 96.4779 97.1216 96.6447C97.5593 96.8131 97.97 97.1037 98.3537 97.5163C98.7405 97.9325 99.0028 98.3659 99.1404 98.8165C99.2764 99.2687 99.2889 99.7064 99.178 100.129C99.0653 100.554 98.8287 100.934 98.468 101.269C98.1074 101.605 97.712 101.812 97.2819 101.892C96.8501 101.973 96.4145 101.929 95.9751 101.759C95.534 101.59 95.1201 101.298 94.7332 100.882C94.3496 100.469 94.0906 100.038 93.9563 99.5872C93.8202 99.1383 93.8085 98.7015 93.9211 98.2768C94.0321 97.8537 94.2679 97.4745 94.6285 97.1392ZM95.1411 97.6906C94.8671 97.9453 94.707 98.2251 94.6607 98.5299C94.6144 98.8348 94.6552 99.1412 94.783 99.449C94.9108 99.7569 95.0988 100.044 95.347 100.311C95.5952 100.578 95.869 100.788 96.1684 100.939C96.4677 101.091 96.7719 101.156 97.0809 101.133C97.39 101.111 97.6815 100.973 97.9554 100.718C98.2294 100.463 98.3887 100.183 98.4334 99.8762C98.4781 99.5696 98.4357 99.2615 98.3063 98.9519C98.1769 98.6423 97.9881 98.354 97.7398 98.087C97.4916 97.8199 97.2186 97.6115 96.9209 97.4616C96.6232 97.3117 96.3206 97.2487 96.0132 97.2727C95.7057 97.2966 95.4151 97.436 95.1411 97.6906Z" fill="#161616"></path><path d="M89.1362 108.327L88.7086 107.673L90.8248 106.29L88.2671 102.378L88.9685 101.92L91.9538 106.485L89.1362 108.327Z" fill="#161616"></path><path d="M81.5526 103.95L84.5374 110.831L83.7946 111.153L83.4498 110.358L83.3586 110.398C83.3398 110.509 83.3096 110.654 83.2681 110.832C83.2254 111.013 83.1327 111.198 82.9899 111.386C82.8459 111.578 82.611 111.744 82.2852 111.885C81.8638 112.068 81.4468 112.124 81.0339 112.053C80.6211 111.981 80.2407 111.792 79.8927 111.483C79.5448 111.175 79.2568 110.758 79.0288 110.232C78.7989 109.702 78.6898 109.204 78.7014 108.737C78.7139 108.272 78.8337 107.864 79.0606 107.513C79.2885 107.163 79.6109 106.898 80.0279 106.718C80.3494 106.578 80.6298 106.52 80.8693 106.542C81.1097 106.567 81.3117 106.625 81.4753 106.717C81.6398 106.811 81.7701 106.891 81.8662 106.957L81.9313 106.929L80.7838 104.284L81.5526 103.95ZM82.6962 108.657C82.5323 108.279 82.3323 107.969 82.0962 107.729C81.8611 107.49 81.6017 107.335 81.3182 107.265C81.0357 107.196 80.7402 107.229 80.4318 107.363C80.1103 107.502 79.8789 107.703 79.7373 107.966C79.5946 108.232 79.5316 108.533 79.5483 108.869C79.5638 109.208 79.6488 109.556 79.8033 109.912C79.9559 110.264 80.1478 110.557 80.3788 110.792C80.6087 111.031 80.868 111.185 81.1568 111.256C81.4443 111.33 81.751 111.296 82.0768 111.155C82.3895 111.019 82.618 110.826 82.762 110.575C82.907 110.327 82.9726 110.037 82.9587 109.708C82.9458 109.381 82.8583 109.03 82.6962 108.657Z" fill="#161616"></path><path d="M72.7269 109.162C73.0626 109.08 73.3828 109.068 73.6874 109.128C73.9925 109.19 74.2551 109.322 74.475 109.524C74.6955 109.729 74.8479 110.003 74.9321 110.348C75.0063 110.652 75.0065 110.913 74.933 111.131C74.86 111.351 74.7367 111.539 74.563 111.696C74.3893 111.853 74.1882 111.987 73.9596 112.099C73.7293 112.214 73.495 112.318 73.2568 112.41C72.9449 112.53 72.6915 112.625 72.4964 112.694C72.2997 112.767 72.1617 112.84 72.0827 112.916C72.0013 112.992 71.9766 113.095 72.0086 113.226L72.0154 113.254C72.0985 113.594 72.2562 113.836 72.4885 113.979C72.7186 114.123 73.021 114.149 73.3959 114.057C73.7846 113.962 74.0685 113.803 74.2478 113.579C74.427 113.355 74.5379 113.135 74.5804 112.92L75.4205 113.007C75.3612 113.363 75.2384 113.659 75.0522 113.894C74.8643 114.133 74.6422 114.321 74.3859 114.459C74.1279 114.6 73.8655 114.703 73.5987 114.768C73.4285 114.81 73.228 114.837 72.9971 114.849C72.7644 114.865 72.5295 114.836 72.2922 114.762C72.0525 114.689 71.8331 114.544 71.6339 114.327C71.4347 114.11 71.2838 113.791 71.181 113.37L70.3285 109.879L71.1427 109.68L71.3179 110.398L71.3593 110.387C71.3864 110.259 71.4484 110.113 71.5451 109.951C71.6419 109.788 71.786 109.635 71.9774 109.491C72.1689 109.347 72.4187 109.237 72.7269 109.162ZM72.7812 109.923C72.4593 110.002 72.2033 110.131 72.0134 110.312C71.8212 110.493 71.6932 110.697 71.6294 110.925C71.5632 111.153 71.5571 111.377 71.611 111.598L71.793 112.343C71.8174 112.293 71.884 112.237 71.9929 112.174C72.1 112.113 72.2264 112.052 72.372 111.99C72.5159 111.93 72.6568 111.874 72.7949 111.821C72.9313 111.77 73.0418 111.729 73.1264 111.696C73.3312 111.617 73.518 111.524 73.6869 111.417C73.854 111.312 73.979 111.186 74.0619 111.036C74.1431 110.89 74.1584 110.713 74.1079 110.506C74.0388 110.223 73.8819 110.035 73.6373 109.941C73.3909 109.85 73.1055 109.844 72.7812 109.923Z" fill="#161616"></path><path d="M62.3747 111.845L60.7765 116.285L59.983 116.34L61.9555 110.735L62.6356 110.687L65.3251 115.968L64.5457 116.022L62.3747 111.845ZM64.815 116.003L64.4352 110.562L65.2713 110.503L65.651 115.945L64.815 116.003ZM60.1559 110.86L60.5356 116.302L59.6996 116.36L59.3198 110.919L60.1559 110.86Z" fill="#161616"></path><path d="M50.3463 111.181L47.6703 115.068L46.8888 114.919L50.2235 110.001L50.8933 110.128L52.1498 115.919L51.3823 115.773L50.3463 111.181ZM51.6474 115.824L52.6656 110.465L53.4889 110.621L52.4707 115.98L51.6474 115.824ZM48.4512 109.664L47.433 115.023L46.6097 114.866L47.6279 109.508L48.4512 109.664Z" fill="#161616"></path><path d="M40.7375 110.542L39.3096 109.908C38.7255 109.648 38.3446 109.302 38.1669 108.868C37.9893 108.434 38.0014 107.99 38.2033 107.535C38.3359 107.237 38.5258 106.996 38.7729 106.813C39.019 106.632 39.3084 106.529 39.6411 106.503C39.9728 106.48 40.3334 106.555 40.7228 106.728L42.8127 107.656L40.5977 112.641L39.8319 112.3L41.7296 108.03L40.4056 107.441C40.1027 107.307 39.8183 107.276 39.5525 107.35C39.2866 107.424 39.0979 107.586 38.9864 107.837C38.8691 108.101 38.8708 108.359 38.9915 108.612C39.1122 108.865 39.324 109.059 39.6269 109.194L41.0547 109.828L40.7375 110.542ZM38.1267 105.574L35.9117 110.559L35.1459 110.218L37.3608 105.234L38.1267 105.574Z" fill="#161616"></path></g></svg> 