<?xml version="1.0" encoding="UTF-8"?> <svg xmlns="http://www.w3.org/2000/svg" width="25" height="12" viewBox="0 0 25 12" fill="none"><path d="M5.00365 0.297649C4.6906 0.645481 4.55147 10.7848 4.82973 11.5326C5.00365 11.9674 5.07321 12.0022 6.11671 12.0022C6.74281 12.0022 7.29934 11.9152 7.42108 11.7935C7.5776 11.637 7.62978 10.1239 7.62978 6.08905C7.62978 0.975922 7.61239 0.558523 7.31673 0.297649C6.88194 -0.102358 5.33409 -0.102358 5.00365 0.297649Z" fill="#161616"></path><path d="M17.7341 0.245428C17.595 0.401952 17.5428 2.12372 17.5776 6.19335L17.6297 11.9152L18.7254 11.9674C19.3863 12.0021 19.9254 11.9326 20.082 11.8108C20.2733 11.6543 20.3254 10.6282 20.3254 6.089C20.3254 0.975875 20.3081 0.558476 20.0124 0.297603C19.6124 -0.0676212 18.0298 -0.102405 17.7341 0.245428Z" fill="#161616"></path><path d="M2.53369 2.40218C2.27282 2.68044 2.23804 3.20219 2.23804 6.12398C2.23804 9.1849 2.27282 9.53273 2.55109 9.79361C2.96848 10.1762 3.68154 10.1588 4.02937 9.77622C4.29025 9.49795 4.32503 8.9762 4.32503 6.07181C4.30764 3.55002 4.25546 2.62827 4.08155 2.38479C3.78589 2.00217 2.89892 2.00217 2.53369 2.40218Z" fill="#161616"></path><path d="M21.0565 2.29816C20.7608 2.59382 20.7608 9.58524 21.0565 9.8809C21.3347 10.1592 22.2739 10.1592 22.5521 9.8809C22.8478 9.58524 22.8478 2.59382 22.5521 2.29816C22.2739 2.0199 21.3347 2.0199 21.0565 2.29816Z" fill="#161616"></path><path d="M1.31716 4.19359C0.917154 4.43708 0.499756 5.37622 0.499756 6.05449C0.499756 7.02842 1.19542 8.17627 1.78673 8.17627C1.83891 8.17627 1.89108 7.23712 1.89108 6.08928C1.89108 4.94143 1.83891 4.00229 1.76934 4.00229C1.68238 4.00229 1.49108 4.08924 1.31716 4.19359Z" fill="#161616"></path><path d="M23.1089 6.08871C23.1089 7.98439 23.1437 8.19309 23.4045 8.14092C23.9437 8.03657 24.5002 6.97568 24.5002 6.08871C24.5002 5.20174 23.9437 4.14085 23.4045 4.0365C23.1437 3.98433 23.1089 4.19303 23.1089 6.08871Z" fill="#161616"></path><path d="M7.92671 4.64564C7.85715 4.90651 7.87454 6.43697 7.9615 7.25438C7.97889 7.42829 9.02239 7.48047 12.5877 7.48047H17.1964V5.91522V4.34998H12.6051C8.3615 4.34998 7.99628 4.36737 7.92671 4.64564Z" fill="#161616"></path></svg> 