<?xml version="1.0" encoding="UTF-8"?> <svg xmlns="http://www.w3.org/2000/svg" width="94" height="31" viewBox="0 0 94 31" fill="none"><path d="M22.2852 9.1197L23.821 19.5594L25.3568 9.1197H27.2034L25.2288 21.918H22.2304L20.2558 9.1197H22.2852ZM28.1422 21.918V9.1197H30.1533V20.0896H33.4626V21.918H28.1422ZM38.7989 9.1197L40.8466 21.918H38.8172L38.4698 19.596H36.0015L35.6542 21.918H33.8075L35.8553 9.1197H38.7989ZM37.2265 11.3868L36.2575 17.8591H38.1955L37.2265 11.3868ZM41.7832 21.918V9.1197H44.9645C46.9756 9.1197 47.9629 10.235 47.9629 12.2827V18.755C47.9629 20.8027 46.9756 21.918 44.9645 21.918H41.7832ZM44.9279 10.948H43.7943V20.0896H44.9279C45.5678 20.0896 45.9518 19.7605 45.9518 18.8464V12.1913C45.9518 11.2771 45.5678 10.948 44.9279 10.948ZM49.2465 21.918V9.1197H51.2576V20.0896H54.5669V21.918H49.2465ZM57.4532 10.948V14.5133H60.214V16.3416H57.4532V20.0896H60.927V21.918H55.442V9.1197H60.927V10.948H57.4532ZM66.4698 21.918L63.965 12.6484V21.918H62.155V9.1197H64.6781L66.7441 16.7804V9.1197H68.5359V21.918H66.4698ZM74.4369 9.1197L76.4846 21.918H74.4552L74.1078 19.596H71.6396L71.2922 21.918H69.4456L71.4933 9.1197H74.4369ZM72.8646 11.3868L71.8955 17.8591H73.8336L72.8646 11.3868ZM79.4324 10.948V14.8058H82.0286V16.6341H79.4324V21.918H77.4212V9.1197H82.7416V10.948H79.4324ZM83.7061 21.918V9.1197H85.7172V21.918H83.7061ZM86.6027 10.948V9.1197H92.819V10.948H90.7164V21.918H88.7053V10.948H86.6027Z" fill="#161616"></path><path d="M3.41036 0.102623C3.08594 0.298303 3.06019 0.406442 3.04475 1.76075L3.0293 2.98633H7.56084H12.0975V1.93069C12.0975 1.35395 12.0718 0.766905 12.046 0.627869C11.9842 0.365246 11.804 0.12837 11.598 0.0459786C11.5259 0.0202312 9.8575 -0.000366721 7.52479 -0.000366721C3.69873 -0.000366721 3.56999 0.00478276 3.41036 0.102623Z" fill="#B9E646"></path><path d="M0.540631 4.06822C0.288307 4.14546 0.108075 4.36174 0.0462811 4.66556C0.0102348 4.84064 -0.00521366 5.56672 0.00508529 6.7305C0.0205337 8.72335 0.0205337 8.6976 0.370698 8.90873C0.530332 9.00657 0.684816 9.01172 7.04957 9.01172C13.4143 9.01172 13.5688 9.00657 13.7284 8.90873C14.0786 8.6976 14.0786 8.72335 14.0941 6.7202C14.1095 5.52038 14.0941 4.83035 14.0529 4.65526C13.9911 4.35144 13.8057 4.14546 13.5328 4.06822C13.3113 4.00128 0.75176 4.00643 0.540631 4.06822Z" fill="#B9E646"></path><path d="M5.04297 15.114V20.1348H7.05126H9.05956V15.114V10.0933H7.05126H5.04297V15.114Z" fill="#B9E646"></path><path d="M0.422984 21.298C0.330293 21.3444 0.201556 21.468 0.139763 21.5709C0.0213247 21.7512 0.0213247 21.7924 0.00587625 23.5329C-0.00957218 24.7173 0.00587624 25.397 0.0470721 25.5721C0.108866 25.8553 0.278799 26.0613 0.525973 26.154C0.731952 26.2312 13.3688 26.2312 13.5747 26.154C13.8219 26.0613 13.9919 25.8553 14.0536 25.5721C14.0948 25.397 14.1103 24.7173 14.0948 23.5329C14.0794 21.7924 14.0794 21.7512 13.961 21.5709C13.7292 21.1899 14.2339 21.2156 7.04006 21.2156C1.23145 21.2156 0.572319 21.2259 0.422984 21.298Z" fill="#B9E646"></path><path d="M3.04475 28.4613C3.06019 29.8207 3.08594 29.9289 3.41036 30.1246C3.56999 30.2224 3.69873 30.2275 7.56599 30.2275C11.3817 30.2275 11.562 30.2224 11.7165 30.1297C12.0357 29.9392 12.0718 29.7692 12.0872 28.4355L12.1078 27.2408H7.56599H3.0293L3.04475 28.4613Z" fill="#B9E646"></path></svg> 