<?xml version="1.0" encoding="UTF-8"?> <svg xmlns="http://www.w3.org/2000/svg" width="60" height="60" viewBox="0 0 60 60" fill="none"><rect width="60" height="60" rx="30" fill="#C4F44A"></rect><path d="M16.6965 25.8662V33H15.5588V27.292L14.1427 27.8779V26.8867L16.5597 25.8662H16.6965ZM22.5488 28.8496V30.0117C22.5488 30.5684 22.5 31.0436 22.4023 31.4375C22.3079 31.8281 22.1728 32.1455 21.997 32.3896C21.8245 32.6338 21.6162 32.8128 21.372 32.9268C21.1312 33.0407 20.8626 33.0977 20.5664 33.0977C20.332 33.0977 20.1123 33.0618 19.9072 32.9902C19.7021 32.9186 19.5166 32.8063 19.3506 32.6533C19.1878 32.5003 19.0478 32.3034 18.9306 32.0625C18.8167 31.8184 18.7272 31.527 18.6621 31.1885C18.6002 30.8499 18.5693 30.4577 18.5693 30.0117V28.8496C18.5693 28.2897 18.6181 27.8177 18.7158 27.4336C18.8134 27.0462 18.9502 26.7321 19.1259 26.4912C19.3017 26.2471 19.5101 26.0697 19.7509 25.959C19.9951 25.8483 20.2653 25.793 20.5615 25.793C20.7959 25.793 21.0156 25.8288 21.2207 25.9004C21.4258 25.9688 21.6097 26.0778 21.7724 26.2275C21.9352 26.3773 22.0752 26.5726 22.1924 26.8135C22.3095 27.0511 22.3974 27.3392 22.456 27.6777C22.5179 28.013 22.5488 28.4036 22.5488 28.8496ZM21.416 30.1826V28.6689C21.416 28.389 21.403 28.1416 21.3769 27.9268C21.3509 27.7119 21.3151 27.5296 21.2695 27.3799C21.2239 27.2301 21.1653 27.1097 21.0937 27.0186C21.0254 26.9242 20.9456 26.8558 20.8545 26.8135C20.7666 26.7679 20.6689 26.7451 20.5615 26.7451C20.428 26.7451 20.3076 26.7793 20.2002 26.8477C20.096 26.916 20.0065 27.0267 19.9316 27.1797C19.86 27.3294 19.8047 27.528 19.7656 27.7754C19.7265 28.0195 19.707 28.3174 19.707 28.6689V30.1826C19.707 30.4658 19.72 30.7148 19.7461 30.9297C19.7721 31.1445 19.8095 31.3301 19.8584 31.4863C19.9072 31.6393 19.9658 31.7646 20.0341 31.8623C20.1025 31.9567 20.1806 32.0267 20.2685 32.0723C20.3597 32.1178 20.459 32.1406 20.5664 32.1406C20.7031 32.1406 20.8235 32.1048 20.9277 32.0332C21.0351 31.9616 21.1246 31.8493 21.1963 31.6963C21.2679 31.54 21.3216 31.3366 21.3574 31.0859C21.3965 30.8353 21.416 30.5342 21.416 30.1826ZM27.2564 30.5146L28.692 25.8906H29.9957L27.9986 31.7012C27.927 31.8835 27.8489 32.0592 27.7642 32.2285C27.6828 32.3978 27.5836 32.5492 27.4664 32.6826C27.3492 32.8128 27.206 32.9154 27.0367 32.9902C26.8707 33.0651 26.6672 33.1025 26.4263 33.1025C26.358 33.1025 26.2782 33.0993 26.1871 33.0928C26.0992 33.0863 26.0341 33.0814 25.9918 33.0781L25.9869 32.0918C26.0194 32.0951 26.0764 32.0999 26.1578 32.1064C26.2424 32.1097 26.301 32.1113 26.3336 32.1113C26.4833 32.1113 26.5972 32.0804 26.6754 32.0186C26.7567 31.9535 26.8202 31.8672 26.8658 31.7598C26.9114 31.6523 26.9521 31.5335 26.9879 31.4033L27.2564 30.5146ZM26.3824 25.8906L27.7105 29.7773L28.0377 31.1006L27.1197 31.1348L25.0933 25.8906H26.3824ZM32.9769 30.3633H31.4779V29.3721H32.9769C33.2243 29.3721 33.4229 29.32 33.5726 29.2158C33.7224 29.1117 33.8314 28.9684 33.8998 28.7861C33.9714 28.6038 34.0072 28.3971 34.0072 28.166C34.0072 27.9447 33.9714 27.7363 33.8998 27.541C33.8314 27.3457 33.7224 27.1878 33.5726 27.0674C33.4229 26.9469 33.2243 26.8867 32.9769 26.8867H31.8148V33H30.6283V25.8906H32.9769C33.4489 25.8906 33.8493 25.9883 34.1781 26.1836C34.5101 26.3789 34.764 26.6475 34.9398 26.9893C35.1156 27.3278 35.2035 27.7168 35.2035 28.1562C35.2035 28.6152 35.1156 29.0091 34.9398 29.3379C34.764 29.6667 34.5101 29.9206 34.1781 30.0996C33.8493 30.2754 33.4489 30.3633 32.9769 30.3633ZM40.7775 28.8643V30.0752C40.7775 30.5765 40.7189 31.016 40.6017 31.3936C40.4878 31.7712 40.3218 32.0869 40.1037 32.3408C39.8888 32.5915 39.6284 32.7803 39.3224 32.9072C39.0197 33.0342 38.6812 33.0977 38.3068 33.0977C37.9357 33.0977 37.5972 33.0342 37.2912 32.9072C36.9884 32.7803 36.7264 32.5915 36.5051 32.3408C36.287 32.0869 36.1177 31.7712 35.9972 31.3936C35.8801 31.016 35.8215 30.5765 35.8215 30.0752V28.8643C35.8215 28.3564 35.8801 27.9121 35.9972 27.5312C36.1144 27.1471 36.2821 26.8265 36.5002 26.5693C36.7215 26.3122 36.9836 26.1185 37.2863 25.9883C37.5923 25.8581 37.9292 25.793 38.297 25.793C38.6714 25.793 39.0099 25.8581 39.3127 25.9883C39.6187 26.1185 39.8807 26.3122 40.0988 26.5693C40.3169 26.8265 40.4845 27.1471 40.6017 27.5312C40.7189 27.9121 40.7775 28.3564 40.7775 28.8643ZM39.6008 30.0752V28.8545C39.6008 28.4932 39.5715 28.1839 39.5129 27.9268C39.4575 27.6663 39.3745 27.4548 39.2638 27.292C39.1532 27.126 39.0164 27.0039 38.8537 26.9258C38.6942 26.8444 38.5086 26.8037 38.297 26.8037C38.092 26.8037 37.908 26.8444 37.7453 26.9258C37.5858 27.0039 37.4491 27.126 37.3351 27.292C37.2245 27.4548 37.1398 27.6663 37.0812 27.9268C37.0259 28.1839 36.9982 28.4932 36.9982 28.8545V30.0752C36.9982 30.43 37.0275 30.736 37.0861 30.9932C37.1447 31.2471 37.2293 31.4554 37.34 31.6182C37.4539 31.7777 37.5923 31.8965 37.7551 31.9746C37.9178 32.0527 38.1017 32.0918 38.3068 32.0918C38.5151 32.0918 38.7007 32.0527 38.8634 31.9746C39.0262 31.8965 39.1613 31.7777 39.2687 31.6182C39.3794 31.4554 39.4624 31.2471 39.5177 30.9932C39.5731 30.736 39.6008 30.43 39.6008 30.0752ZM42.8896 25.8906V33H41.7031V25.8906H42.8896ZM46.4394 25.8906L44.0664 29.958H42.5527L42.3769 28.8643H43.4023L44.9941 25.8906H46.4394ZM45.2041 33L43.4365 29.7627L44.1982 28.8057L46.625 33H45.2041Z" fill="#161616"></path></svg> 