<?xml version="1.0" encoding="UTF-8"?> <svg xmlns="http://www.w3.org/2000/svg" width="31" height="30" viewBox="0 0 31 30" fill="none"><rect x="0.9375" width="30" height="30" rx="15" fill="#C4F44A"></rect><path fill-rule="evenodd" clip-rule="evenodd" d="M13.8033 11.9721C15.224 11.8609 16.6512 11.8609 18.0718 11.9721L19.0261 12.0468C19.5577 12.0883 19.9925 12.4867 20.0804 13.0126C20.3002 14.3284 20.3002 15.6716 20.0804 16.9874C19.9925 17.5133 19.5577 17.9117 19.0261 17.9532L18.0718 18.0279C16.6512 18.139 15.224 18.139 13.8033 18.0279L12.849 17.9532C12.3175 17.9117 11.8826 17.5133 11.7948 16.9874C11.5749 15.6716 11.5749 14.3284 11.7948 13.0126C11.8826 12.4867 12.3175 12.0883 12.849 12.0468L13.8033 11.9721ZM15.0858 16.052V13.948C15.0858 13.8487 15.1941 13.7873 15.2793 13.8384L17.0327 14.8904C17.1154 14.9401 17.1154 15.0599 17.0327 15.1096L15.2793 16.1616C15.1941 16.2127 15.0858 16.1513 15.0858 16.052Z" fill="#161616"></path></svg> 