<?xml version="1.0" encoding="UTF-8"?> <svg xmlns="http://www.w3.org/2000/svg" width="60" height="60" viewBox="0 0 60 60" fill="none"><rect width="60" height="60" rx="30" fill="#C4F44A"></rect><path d="M16.9825 28.2822V29H13.9137V28.3811L15.3675 26.4951C15.5262 26.2827 15.6483 26.0996 15.7338 25.9458C15.8217 25.7896 15.8827 25.6492 15.9169 25.5247C15.951 25.4001 15.9681 25.2781 15.9681 25.1584C15.9681 24.9924 15.9449 24.8459 15.8986 24.719C15.8546 24.592 15.7887 24.4932 15.7008 24.4224C15.6129 24.3491 15.5055 24.3125 15.3785 24.3125C15.2198 24.3125 15.0892 24.3552 14.9867 24.4407C14.8842 24.5237 14.8085 24.6396 14.7596 24.7886C14.7108 24.9351 14.6864 25.1035 14.6864 25.2939H13.8331C13.8331 24.9839 13.8929 24.6995 14.0126 24.4407C14.1346 24.1819 14.3116 23.9768 14.5436 23.8254C14.7755 23.6716 15.0575 23.5947 15.3895 23.5947C15.6971 23.5947 15.9571 23.6545 16.1696 23.7742C16.3844 23.8938 16.5467 24.0635 16.6566 24.2832C16.7689 24.5029 16.8251 24.7642 16.8251 25.0669C16.8251 25.2329 16.8019 25.3989 16.7555 25.5649C16.7115 25.7285 16.6493 25.8909 16.5687 26.052C16.4882 26.2131 16.3905 26.3755 16.2758 26.5391C16.1634 26.7026 16.0389 26.8687 15.9022 27.0371L14.983 28.2822H16.9825ZM20.4254 27.136L21.502 23.668H22.4798L20.982 28.0259C20.9283 28.1626 20.8697 28.2944 20.8062 28.4214C20.7452 28.5483 20.6707 28.6619 20.5828 28.762C20.4949 28.8596 20.3875 28.9365 20.2606 28.9927C20.1361 29.0488 19.9835 29.0769 19.8028 29.0769C19.7515 29.0769 19.6917 29.0745 19.6234 29.0696C19.5574 29.0647 19.5086 29.061 19.4769 29.0586L19.4732 28.3188C19.4976 28.3213 19.5404 28.325 19.6014 28.3298C19.6649 28.3323 19.7088 28.3335 19.7332 28.3335C19.8455 28.3335 19.931 28.3103 19.9896 28.2639C20.0506 28.2151 20.0982 28.1504 20.1324 28.0698C20.1666 27.9893 20.1971 27.9001 20.2239 27.8025L20.4254 27.136ZM19.7698 23.668L20.7659 26.583L21.0113 27.5754L20.3228 27.6011L18.803 23.668H19.7698ZM24.7157 27.0225H23.5915V26.2791H24.7157C24.9013 26.2791 25.0502 26.24 25.1625 26.1619C25.2748 26.0837 25.3566 25.9763 25.4079 25.8396C25.4616 25.7029 25.4884 25.5479 25.4884 25.3745C25.4884 25.2085 25.4616 25.0522 25.4079 24.9058C25.3566 24.7593 25.2748 24.6409 25.1625 24.5505C25.0502 24.4602 24.9013 24.415 24.7157 24.415H23.8442V29H22.9543V23.668H24.7157C25.0697 23.668 25.37 23.7412 25.6166 23.8877C25.8656 24.0342 26.0561 24.2356 26.1879 24.4919C26.3197 24.7458 26.3857 25.0376 26.3857 25.3672C26.3857 25.7114 26.3197 26.0068 26.1879 26.2534C26.0561 26.5 25.8656 26.6904 25.6166 26.8247C25.37 26.9565 25.0697 27.0225 24.7157 27.0225ZM30.5662 25.8982V26.8064C30.5662 27.1824 30.5222 27.512 30.4343 27.7952C30.3489 28.0784 30.2244 28.3152 30.0608 28.5056C29.8997 28.6936 29.7044 28.8352 29.4749 28.9304C29.2478 29.0256 28.9939 29.0732 28.7132 29.0732C28.4348 29.0732 28.1809 29.0256 27.9514 28.9304C27.7244 28.8352 27.5279 28.6936 27.3618 28.5056C27.1983 28.3152 27.0713 28.0784 26.981 27.7952C26.8931 27.512 26.8491 27.1824 26.8491 26.8064V25.8982C26.8491 25.5173 26.8931 25.1841 26.981 24.8984C27.0689 24.6104 27.1946 24.3699 27.3582 24.177C27.5242 23.9841 27.7207 23.8389 27.9478 23.7412C28.1773 23.6436 28.43 23.5947 28.7058 23.5947C28.9866 23.5947 29.2405 23.6436 29.4676 23.7412C29.697 23.8389 29.8936 23.9841 30.0571 24.177C30.2207 24.3699 30.3465 24.6104 30.4343 24.8984C30.5222 25.1841 30.5662 25.5173 30.5662 25.8982ZM29.6836 26.8064V25.8909C29.6836 25.6199 29.6616 25.3879 29.6177 25.1951C29.5762 24.9998 29.5139 24.8411 29.4309 24.719C29.3479 24.5945 29.2454 24.5029 29.1233 24.4443C29.0037 24.3833 28.8645 24.3528 28.7058 24.3528C28.552 24.3528 28.4141 24.3833 28.292 24.4443C28.1724 24.5029 28.0698 24.5945 27.9844 24.719C27.9014 24.8411 27.8379 24.9998 27.794 25.1951C27.7525 25.3879 27.7317 25.6199 27.7317 25.8909V26.8064C27.7317 27.0725 27.7537 27.302 27.7976 27.4949C27.8416 27.6853 27.9051 27.8416 27.9881 27.9636C28.0735 28.0833 28.1773 28.1724 28.2993 28.231C28.4214 28.2896 28.5593 28.3188 28.7132 28.3188C28.8694 28.3188 29.0086 28.2896 29.1306 28.231C29.2527 28.1724 29.354 28.0833 29.4346 27.9636C29.5176 27.8416 29.5799 27.6853 29.6214 27.4949C29.6629 27.302 29.6836 27.0725 29.6836 26.8064ZM32.9559 26.5977H31.8683L31.8646 25.9165H32.8278C32.9767 25.9165 33.1036 25.8872 33.2086 25.8286C33.3136 25.77 33.3929 25.6846 33.4467 25.5723C33.5028 25.46 33.5309 25.3245 33.5309 25.1658C33.5309 24.99 33.5052 24.8472 33.454 24.7373C33.4051 24.625 33.3295 24.5432 33.2269 24.4919C33.1244 24.4407 32.9925 24.415 32.8314 24.415H32.132V29H31.2421V23.668H32.8314C33.0804 23.668 33.3026 23.696 33.4979 23.7522C33.6932 23.8083 33.8592 23.8962 33.996 24.0159C34.1351 24.1355 34.2401 24.2856 34.3109 24.4663C34.3842 24.647 34.4208 24.8618 34.4208 25.1108C34.4208 25.3281 34.3744 25.5283 34.2816 25.7114C34.1888 25.8921 34.0509 26.041 33.8678 26.1582C33.6871 26.2729 33.4625 26.3413 33.194 26.3633L32.9559 26.5977ZM32.923 29H31.5753L31.9855 28.2566H32.923C33.0817 28.2566 33.2123 28.2224 33.3148 28.1541C33.4174 28.0857 33.4943 27.9905 33.5455 27.8684C33.5968 27.7463 33.6224 27.6035 33.6224 27.4399C33.6224 27.269 33.6005 27.1201 33.5565 26.9932C33.5126 26.8662 33.4418 26.7686 33.3441 26.7002C33.2465 26.6318 33.1171 26.5977 32.9559 26.5977H32.0587L32.066 25.9165H33.2123L33.4174 26.1765C33.6737 26.1814 33.8824 26.2449 34.0436 26.3669C34.2047 26.4866 34.3231 26.6416 34.3988 26.832C34.4745 27.0225 34.5123 27.2263 34.5123 27.4436C34.5123 27.783 34.4488 28.0686 34.3219 28.3005C34.1974 28.53 34.0167 28.7046 33.7799 28.8242C33.5431 28.9414 33.2574 29 32.923 29ZM38.1472 28.2566V29H35.8327V28.2566H38.1472ZM36.0671 23.668V29H35.1772V23.668H36.0671ZM37.8359 25.8872V26.6196H35.8327V25.8872H37.8359ZM38.1252 23.668V24.415H35.8327V23.668H38.1252ZM41.5843 25.8872V26.6343H39.3394V25.8872H41.5843ZM39.5482 23.668V29H38.6583V23.668H39.5482ZM42.2801 23.668V29H41.3939V23.668H42.2801ZM43.6847 25.7004H44.7907C45.1349 25.7004 45.4303 25.7688 45.6769 25.9055C45.9235 26.0422 46.1115 26.2327 46.2409 26.4768C46.3727 26.7209 46.4386 27.0066 46.4386 27.3337C46.4386 27.5803 46.4008 27.8049 46.3251 28.0076C46.2519 28.2102 46.1432 28.386 45.9992 28.5349C45.8576 28.6838 45.6855 28.7986 45.4828 28.8792C45.2802 28.9597 45.0495 29 44.7907 29H43.0512V23.668H43.9411V28.2566H44.7907C44.9665 28.2566 45.1093 28.2139 45.2192 28.1284C45.3315 28.0405 45.4145 27.927 45.4682 27.7878C45.5243 27.6462 45.5524 27.4924 45.5524 27.3264C45.5524 27.1653 45.5243 27.0188 45.4682 26.887C45.4145 26.7527 45.3315 26.6465 45.2192 26.5684C45.1093 26.4878 44.9665 26.4475 44.7907 26.4475H43.6847V25.7004ZM13.2336 34.2605H14.1198C14.1027 34.6462 14.0246 34.9746 13.8854 35.2456C13.7463 35.5142 13.5461 35.7192 13.2848 35.8608C13.026 36.0024 12.7099 36.0732 12.3363 36.0732C12.0531 36.0732 11.7992 36.022 11.5746 35.9194C11.3525 35.8169 11.1633 35.6692 11.007 35.4763C10.8508 35.281 10.7311 35.043 10.6481 34.7622C10.5675 34.4814 10.5273 34.1628 10.5273 33.8064V32.8616C10.5273 32.5051 10.5688 32.1865 10.6518 31.9058C10.7372 31.625 10.8593 31.387 11.018 31.1917C11.1767 30.9963 11.3696 30.8486 11.5966 30.7485C11.8261 30.646 12.0849 30.5947 12.373 30.5947C12.7416 30.5947 13.0517 30.6655 13.3031 30.8071C13.5546 30.9487 13.7487 31.1562 13.8854 31.4297C14.0221 31.7031 14.1015 32.0364 14.1235 32.4294H13.2372C13.225 32.1633 13.1884 31.9509 13.1274 31.7922C13.0688 31.6311 12.9784 31.5151 12.8564 31.4443C12.7367 31.3735 12.5756 31.3381 12.373 31.3381C12.2045 31.3381 12.0592 31.3699 11.9372 31.4333C11.8175 31.4968 11.7187 31.592 11.6405 31.719C11.5649 31.8435 11.5075 32.001 11.4684 32.1914C11.4318 32.3794 11.4135 32.6003 11.4135 32.8542V33.8064C11.4135 34.0505 11.4294 34.2666 11.4611 34.4546C11.4928 34.6426 11.5441 34.8025 11.6149 34.9343C11.6857 35.0637 11.7797 35.1626 11.8969 35.231C12.0141 35.2969 12.1606 35.3298 12.3363 35.3298C12.5463 35.3298 12.7135 35.2969 12.8381 35.231C12.965 35.165 13.059 35.054 13.12 34.8977C13.1811 34.7415 13.2189 34.5291 13.2336 34.2605ZM17.5789 30.668V31.415H15.4805V30.668H17.5789ZM18.271 30.668V36H17.3848V30.668H18.271ZM15.3084 30.668H16.1909L16.0884 33.323C16.0762 33.7112 16.0481 34.053 16.0042 34.3484C15.9627 34.6414 15.9053 34.8928 15.8321 35.1028C15.7588 35.3127 15.6648 35.4836 15.5501 35.6155C15.4378 35.7473 15.3035 35.845 15.1472 35.9084C14.9934 35.9695 14.8152 36 14.6126 36H14.3928V35.2566L14.521 35.2419C14.6236 35.2322 14.7127 35.2017 14.7883 35.1504C14.8665 35.0991 14.9312 35.021 14.9824 34.916C15.0362 34.811 15.0801 34.6768 15.1143 34.5132C15.1485 34.3472 15.1753 34.1458 15.1948 33.9089C15.2144 33.6721 15.2278 33.395 15.2351 33.0776L15.3084 30.668ZM22.6859 32.8982V33.8064C22.6859 34.1824 22.642 34.512 22.5541 34.7952C22.4686 35.0784 22.3441 35.3152 22.1805 35.5056C22.0194 35.6936 21.8241 35.8352 21.5946 35.9304C21.3675 36.0256 21.1136 36.0732 20.8329 36.0732C20.5546 36.0732 20.3007 36.0256 20.0712 35.9304C19.8441 35.8352 19.6476 35.6936 19.4816 35.5056C19.318 35.3152 19.191 35.0784 19.1007 34.7952C19.0128 34.512 18.9689 34.1824 18.9689 33.8064V32.8982C18.9689 32.5173 19.0128 32.1841 19.1007 31.8984C19.1886 31.6104 19.3143 31.3699 19.4779 31.177C19.6439 30.9841 19.8405 30.8389 20.0675 30.7412C20.297 30.6436 20.5497 30.5947 20.8256 30.5947C21.1063 30.5947 21.3602 30.6436 21.5873 30.7412C21.8168 30.8389 22.0133 30.9841 22.1769 31.177C22.3405 31.3699 22.4662 31.6104 22.5541 31.8984C22.642 32.1841 22.6859 32.5173 22.6859 32.8982ZM21.8033 33.8064V32.8909C21.8033 32.6199 21.7814 32.3879 21.7374 32.1951C21.6959 31.9998 21.6337 31.8411 21.5507 31.719C21.4676 31.5945 21.3651 31.5029 21.243 31.4443C21.1234 31.3833 20.9842 31.3528 20.8256 31.3528C20.6717 31.3528 20.5338 31.3833 20.4117 31.4443C20.2921 31.5029 20.1896 31.5945 20.1041 31.719C20.0211 31.8411 19.9576 31.9998 19.9137 32.1951C19.8722 32.3879 19.8514 32.6199 19.8514 32.8909V33.8064C19.8514 34.0725 19.8734 34.302 19.9174 34.4949C19.9613 34.6853 20.0248 34.8416 20.1078 34.9636C20.1932 35.0833 20.297 35.1724 20.4191 35.231C20.5411 35.2896 20.6791 35.3188 20.8329 35.3188C20.9891 35.3188 21.1283 35.2896 21.2504 35.231C21.3724 35.1724 21.4738 35.0833 21.5543 34.9636C21.6373 34.8416 21.6996 34.6853 21.7411 34.4949C21.7826 34.302 21.8033 34.0725 21.8033 33.8064ZM24.6472 33.7039L23.0139 30.668H24.0905L25.0757 32.8909H25.9216L25.7898 33.7039H24.6472ZM25.0793 33.583L24.0283 36H22.926L24.4165 32.9531L25.0793 33.583ZM26.4233 30.668V36H25.5371V30.668H26.4233ZM28.9135 30.668L27.2949 33.7039H26.1743L26.0388 32.8909H26.8701L27.8369 30.668H28.9135ZM27.8991 36L26.8664 33.583L27.5293 32.9531L29.0014 36H27.8991ZM32.2811 32.8872V33.6343H30.0362V32.8872H32.2811ZM30.2449 30.668V36H29.355V30.668H30.2449ZM32.9769 30.668V36H32.0906V30.668H32.9769ZM37.3771 32.8982V33.8064C37.3771 34.1824 37.3332 34.512 37.2453 34.7952C37.1598 35.0784 37.0353 35.3152 36.8717 35.5056C36.7106 35.6936 36.5153 35.8352 36.2858 35.9304C36.0588 36.0256 35.8049 36.0732 35.5241 36.0732C35.2458 36.0732 34.9919 36.0256 34.7624 35.9304C34.5353 35.8352 34.3388 35.6936 34.1728 35.5056C34.0092 35.3152 33.8822 35.0784 33.7919 34.7952C33.704 34.512 33.6601 34.1824 33.6601 33.8064V32.8982C33.6601 32.5173 33.704 32.1841 33.7919 31.8984C33.8798 31.6104 34.0055 31.3699 34.1691 31.177C34.3351 30.9841 34.5317 30.8389 34.7587 30.7412C34.9882 30.6436 35.2409 30.5947 35.5168 30.5947C35.7975 30.5947 36.0514 30.6436 36.2785 30.7412C36.508 30.8389 36.7045 30.9841 36.8681 31.177C37.0317 31.3699 37.1574 31.6104 37.2453 31.8984C37.3332 32.1841 37.3771 32.5173 37.3771 32.8982ZM36.4946 33.8064V32.8909C36.4946 32.6199 36.4726 32.3879 36.4286 32.1951C36.3871 31.9998 36.3249 31.8411 36.2419 31.719C36.1589 31.5945 36.0563 31.5029 35.9342 31.4443C35.8146 31.3833 35.6755 31.3528 35.5168 31.3528C35.363 31.3528 35.225 31.3833 35.103 31.4443C34.9833 31.5029 34.8808 31.5945 34.7953 31.719C34.7123 31.8411 34.6488 31.9998 34.6049 32.1951C34.5634 32.3879 34.5426 32.6199 34.5426 32.8909V33.8064C34.5426 34.0725 34.5646 34.302 34.6086 34.4949C34.6525 34.6853 34.716 34.8416 34.799 34.9636C34.8844 35.0833 34.9882 35.1724 35.1103 35.231C35.2323 35.2896 35.3703 35.3188 35.5241 35.3188C35.6803 35.3188 35.8195 35.2896 35.9416 35.231C36.0636 35.1724 36.165 35.0833 36.2455 34.9636C36.3285 34.8416 36.3908 34.6853 36.4323 34.4949C36.4738 34.302 36.4946 34.0725 36.4946 33.8064ZM40.6531 34.2605H41.5393C41.5222 34.6462 41.4441 34.9746 41.305 35.2456C41.1658 35.5142 40.9656 35.7192 40.7044 35.8608C40.4456 36.0024 40.1294 36.0732 39.7559 36.0732C39.4727 36.0732 39.2188 36.022 38.9942 35.9194C38.772 35.8169 38.5828 35.6692 38.4265 35.4763C38.2703 35.281 38.1507 35.043 38.0676 34.7622C37.9871 34.4814 37.9468 34.1628 37.9468 33.8064V32.8616C37.9468 32.5051 37.9883 32.1865 38.0713 31.9058C38.1568 31.625 38.2788 31.387 38.4375 31.1917C38.5962 30.9963 38.7891 30.8486 39.0161 30.7485C39.2456 30.646 39.5044 30.5947 39.7925 30.5947C40.1612 30.5947 40.4712 30.6655 40.7227 30.8071C40.9741 30.9487 41.1682 31.1562 41.305 31.4297C41.4417 31.7031 41.521 32.0364 41.543 32.4294H40.6568C40.6446 32.1633 40.6079 31.9509 40.5469 31.7922C40.4883 31.6311 40.398 31.5151 40.2759 31.4443C40.1563 31.3735 39.9951 31.3381 39.7925 31.3381C39.624 31.3381 39.4788 31.3699 39.3567 31.4333C39.2371 31.4968 39.1382 31.592 39.0601 31.719C38.9844 31.8435 38.927 32.001 38.888 32.1914C38.8513 32.3794 38.833 32.6003 38.833 32.8542V33.8064C38.833 34.0505 38.8489 34.2666 38.8806 34.4546C38.9124 34.6426 38.9636 34.8025 39.0344 34.9343C39.1052 35.0637 39.1992 35.1626 39.3164 35.231C39.4336 35.2969 39.5801 35.3298 39.7559 35.3298C39.9658 35.3298 40.1331 35.2969 40.2576 35.231C40.3845 35.165 40.4785 35.054 40.5396 34.8977C40.6006 34.7415 40.6384 34.5291 40.6531 34.2605ZM43.9254 30.668V36H43.0392V30.668H43.9254ZM45.284 30.668V31.415H41.6952V30.668H45.284ZM46.6264 34.3777L48.4831 30.668H49.3437V36H48.4721V32.3123L46.6264 36H45.7585V30.668H46.6264V34.3777Z" fill="#161616"></path></svg> 