<?xml version="1.0" encoding="UTF-8"?> <svg xmlns="http://www.w3.org/2000/svg" width="31" height="30" viewBox="0 0 31 30" fill="none"><rect x="0.46875" width="30" height="30" rx="15" fill="#C4F44A"></rect><path d="M15.4688 13.6158C14.7044 13.6158 14.0847 14.2355 14.0847 15C14.0847 15.7644 14.7044 16.3842 15.4688 16.3842C16.2333 16.3842 16.853 15.7644 16.853 15C16.853 14.2355 16.2333 13.6158 15.4688 13.6158Z" fill="#161616"></path><path fill-rule="evenodd" clip-rule="evenodd" d="M13.2412 11.2016C14.7097 11.0375 16.2279 11.0375 17.6965 11.2016C18.505 11.292 19.1571 11.929 19.252 12.7404C19.4276 14.2417 19.4276 15.7583 19.252 17.2596C19.1571 18.071 18.505 18.708 17.6965 18.7984C16.2279 18.9625 14.7097 18.9625 13.2412 18.7984C12.4327 18.708 11.7805 18.071 11.6856 17.2596C11.5101 15.7583 11.5101 14.2417 11.6856 12.7404C11.7805 11.929 12.4327 11.292 13.2412 11.2016ZM17.5983 12.4446C17.3631 12.4446 17.1724 12.6353 17.1724 12.8705C17.1724 13.1057 17.3631 13.2964 17.5983 13.2964C17.8335 13.2964 18.0242 13.1057 18.0242 12.8705C18.0242 12.6353 17.8335 12.4446 17.5983 12.4446ZM13.4458 15C13.4458 13.8827 14.3516 12.977 15.4688 12.977C16.5861 12.977 17.4918 13.8827 17.4918 15C17.4918 16.1173 16.5861 17.023 15.4688 17.023C14.3516 17.023 13.4458 16.1173 13.4458 15Z" fill="#161616"></path></svg> 