<?xml version="1.0" encoding="UTF-8"?> <svg xmlns="http://www.w3.org/2000/svg" width="60" height="60" viewBox="0 0 60 60" fill="none"><rect width="60" height="60" rx="30" fill="#C4F44A"></rect><path d="M16.0309 23.6497V29H15.1776V24.719L14.1156 25.1584V24.415L15.9283 23.6497H16.0309ZM20.4258 27.136L21.5025 23.668H22.4803L20.9825 28.0259C20.9288 28.1626 20.8702 28.2944 20.8067 28.4214C20.7457 28.5483 20.6712 28.6619 20.5833 28.762C20.4954 28.8596 20.388 28.9365 20.2611 28.9927C20.1365 29.0488 19.984 29.0769 19.8033 29.0769C19.752 29.0769 19.6922 29.0745 19.6238 29.0696C19.5579 29.0647 19.5091 29.061 19.4774 29.0586L19.4737 28.3188C19.4981 28.3213 19.5408 28.325 19.6019 28.3298C19.6654 28.3323 19.7093 28.3335 19.7337 28.3335C19.846 28.3335 19.9315 28.3103 19.9901 28.2639C20.0511 28.2151 20.0987 28.1504 20.1329 28.0698C20.1671 27.9893 20.1976 27.9001 20.2244 27.8025L20.4258 27.136ZM19.7703 23.668L20.7664 26.583L21.0118 27.5754L20.3233 27.6011L18.8035 23.668H19.7703ZM24.7162 27.0225H23.592V26.2791H24.7162C24.8993 26.2791 25.047 26.24 25.1593 26.1619C25.2741 26.0837 25.3571 25.9763 25.4084 25.8396C25.4621 25.7029 25.4889 25.5479 25.4889 25.3745C25.4889 25.2085 25.4621 25.0522 25.4084 24.9058C25.3571 24.7593 25.2753 24.6409 25.163 24.5505C25.0507 24.4602 24.9018 24.415 24.7162 24.415H23.841V29H22.9548V23.668H24.7162C25.0678 23.668 25.3681 23.7412 25.6171 23.8877C25.8661 24.0342 26.0566 24.2356 26.1884 24.4919C26.3202 24.7458 26.3862 25.0376 26.3862 25.3672C26.3862 25.7114 26.3202 26.0068 26.1884 26.2534C26.0566 26.5 25.8661 26.6904 25.6171 26.8247C25.3681 26.9565 25.0678 27.0225 24.7162 27.0225ZM30.5667 25.8982V26.8064C30.5667 27.1824 30.5227 27.512 30.4348 27.7952C30.3494 28.0784 30.2249 28.3152 30.0613 28.5056C29.9002 28.6936 29.7049 28.8352 29.4754 28.9304C29.2483 29.0256 28.9944 29.0732 28.7136 29.0732C28.4353 29.0732 28.1814 29.0256 27.9519 28.9304C27.7249 28.8352 27.5283 28.6936 27.3623 28.5056C27.1988 28.3152 27.0718 28.0784 26.9815 27.7952C26.8936 27.512 26.8496 27.1824 26.8496 26.8064V25.8982C26.8496 25.5173 26.8936 25.1841 26.9815 24.8984C27.0694 24.6104 27.1951 24.3699 27.3587 24.177C27.5247 23.9841 27.7212 23.8389 27.9483 23.7412C28.1778 23.6436 28.4304 23.5947 28.7063 23.5947C28.9871 23.5947 29.241 23.6436 29.468 23.7412C29.6975 23.8389 29.8941 23.9841 30.0576 24.177C30.2212 24.3699 30.3469 24.6104 30.4348 24.8984C30.5227 25.1841 30.5667 25.5173 30.5667 25.8982ZM29.6841 26.8064V25.8909C29.6841 25.6199 29.6621 25.3879 29.6182 25.1951C29.5767 24.9998 29.5144 24.8411 29.4314 24.719C29.3484 24.5945 29.2459 24.5029 29.1238 24.4443C29.0042 24.3833 28.865 24.3528 28.7063 24.3528C28.5525 24.3528 28.4146 24.3833 28.2925 24.4443C28.1729 24.5029 28.0703 24.5945 27.9849 24.719C27.9019 24.8411 27.8384 24.9998 27.7945 25.1951C27.753 25.3879 27.7322 25.6199 27.7322 25.8909V26.8064C27.7322 27.0725 27.7542 27.302 27.7981 27.4949C27.8421 27.6853 27.9055 27.8416 27.9885 27.9636C28.074 28.0833 28.1778 28.1724 28.2998 28.231C28.4219 28.2896 28.5598 28.3188 28.7136 28.3188C28.8699 28.3188 29.0091 28.2896 29.1311 28.231C29.2532 28.1724 29.3545 28.0833 29.4351 27.9636C29.5181 27.8416 29.5803 27.6853 29.6218 27.4949C29.6634 27.302 29.6841 27.0725 29.6841 26.8064ZM32.9564 26.5977H31.8688L31.8651 25.9165H32.8282C32.9772 25.9165 33.1041 25.8872 33.2091 25.8286C33.3141 25.77 33.3934 25.6846 33.4471 25.5723C33.5033 25.46 33.5314 25.3245 33.5314 25.1658C33.5314 24.99 33.507 24.8472 33.4581 24.7373C33.4093 24.625 33.3324 24.5432 33.2274 24.4919C33.1249 24.4407 32.993 24.415 32.8319 24.415H32.1324V29H31.2425V23.668H32.8319C33.0809 23.668 33.3031 23.6973 33.4984 23.7559C33.6962 23.812 33.8634 23.8987 34.0001 24.0159C34.1368 24.1331 34.2406 24.2832 34.3114 24.4663C34.3846 24.647 34.4213 24.8618 34.4213 25.1108C34.4213 25.3281 34.3749 25.5283 34.2821 25.7114C34.1893 25.8921 34.0514 26.041 33.8683 26.1582C33.6876 26.2729 33.463 26.3413 33.1945 26.3633L32.9564 26.5977ZM32.9235 29H31.5758L31.986 28.2566H32.9235C33.0821 28.2566 33.2128 28.2224 33.3153 28.1541C33.4178 28.0857 33.4947 27.9905 33.546 27.8684C33.5973 27.7463 33.6229 27.6035 33.6229 27.4399C33.6229 27.269 33.6009 27.1201 33.557 26.9932C33.5131 26.8662 33.4423 26.7686 33.3446 26.7002C33.2469 26.6318 33.1175 26.5977 32.9564 26.5977H32.0592L32.0665 25.9165H33.2128L33.4178 26.1765C33.6742 26.1814 33.8829 26.2449 34.0441 26.3669C34.2052 26.4866 34.3236 26.6416 34.3993 26.832C34.475 27.0225 34.5128 27.2263 34.5128 27.4436C34.5128 27.783 34.4493 28.0686 34.3224 28.3005C34.1954 28.53 34.0135 28.7046 33.7767 28.8242C33.5424 28.9414 33.2579 29 32.9235 29ZM38.1477 28.2566V29H35.8332V28.2566H38.1477ZM36.0676 23.668V29H35.1777V23.668H36.0676ZM37.8364 25.8872V26.6196H35.8332V25.8872H37.8364ZM38.1257 23.668V24.415H35.8332V23.668H38.1257ZM41.5848 25.8872V26.6343H39.3399V25.8872H41.5848ZM39.5487 23.668V29H38.6588V23.668H39.5487ZM42.2806 23.668V29H41.3944V23.668H42.2806ZM43.6852 25.7004H44.7912C45.1354 25.7004 45.4308 25.7688 45.6774 25.9055C45.924 26.0422 46.112 26.2327 46.2414 26.4768C46.3732 26.7209 46.4391 27.0078 46.4391 27.3374C46.4391 27.5815 46.4013 27.8049 46.3256 28.0076C46.2524 28.2102 46.1437 28.386 45.9997 28.5349C45.8581 28.6838 45.686 28.7986 45.4833 28.8792C45.2807 28.9597 45.05 29 44.7912 29H43.0517V23.668H43.9416V28.2566H44.7912C44.967 28.2566 45.1098 28.2139 45.2197 28.1284C45.332 28.0405 45.415 27.927 45.4687 27.7878C45.5248 27.6462 45.5529 27.4937 45.5529 27.3301C45.5529 27.1665 45.5248 27.0188 45.4687 26.887C45.415 26.7527 45.332 26.6465 45.2197 26.5684C45.1098 26.4878 44.967 26.4475 44.7912 26.4475H43.6852V25.7004ZM13.2341 34.2605H14.1203C14.1032 34.6462 14.0251 34.9746 13.8859 35.2456C13.7467 35.5142 13.5466 35.7192 13.2853 35.8608C13.0265 36.0024 12.7104 36.0732 12.3368 36.0732C12.0536 36.0732 11.7997 36.022 11.5751 35.9194C11.3529 35.8169 11.1637 35.6692 11.0075 35.4763C10.8512 35.281 10.7316 35.043 10.6486 34.7622C10.568 34.4814 10.5278 34.1628 10.5278 33.8064V32.8616C10.5278 32.5051 10.5693 32.1865 10.6523 31.9058C10.7377 31.625 10.8598 31.387 11.0185 31.1917C11.1772 30.9963 11.37 30.8486 11.5971 30.7485C11.8266 30.646 12.0854 30.5947 12.3735 30.5947C12.7421 30.5947 13.0522 30.6655 13.3036 30.8071C13.5551 30.9487 13.7492 31.1562 13.8859 31.4297C14.0226 31.7031 14.102 32.0364 14.1239 32.4294H13.2377C13.2255 32.1633 13.1889 31.9509 13.1279 31.7922C13.0693 31.6311 12.9789 31.5151 12.8569 31.4443C12.7372 31.3735 12.5761 31.3381 12.3735 31.3381C12.205 31.3381 12.0597 31.3699 11.9377 31.4333C11.818 31.4968 11.7192 31.592 11.641 31.719C11.5654 31.8435 11.508 32.001 11.4689 32.1914C11.4323 32.3794 11.414 32.6003 11.414 32.8542V33.8064C11.414 34.0505 11.4299 34.2666 11.4616 34.4546C11.4933 34.6426 11.5446 34.8025 11.6154 34.9343C11.6862 35.0637 11.7802 35.1626 11.8974 35.231C12.0146 35.2969 12.1611 35.3298 12.3368 35.3298C12.5468 35.3298 12.714 35.2969 12.8385 35.231C12.9655 35.165 13.0595 35.054 13.1205 34.8977C13.1816 34.7415 13.2194 34.5291 13.2341 34.2605ZM17.5794 30.668V31.415H15.481V30.668H17.5794ZM18.2715 30.668V36H17.3853V30.668H18.2715ZM15.3089 30.668H16.1914L16.0889 33.323C16.0742 33.7112 16.0462 34.053 16.0047 34.3484C15.9632 34.6414 15.9058 34.8928 15.8325 35.1028C15.7593 35.3127 15.6653 35.4836 15.5506 35.6155C15.4383 35.7473 15.304 35.845 15.1477 35.9084C14.9939 35.9695 14.8157 36 14.6131 36H14.3933V35.2566L14.5215 35.2419C14.624 35.2322 14.7132 35.2017 14.7888 35.1504C14.867 35.0991 14.9317 35.021 14.9829 34.916C15.0366 34.811 15.0806 34.6768 15.1148 34.5132C15.1489 34.3472 15.1758 34.1458 15.1953 33.9089C15.2149 33.6721 15.2283 33.395 15.2356 33.0776L15.3089 30.668ZM22.6864 32.8982V33.8064C22.6864 34.1824 22.6425 34.512 22.5546 34.7952C22.4691 35.0784 22.3446 35.3152 22.181 35.5056C22.0199 35.6936 21.8246 35.8352 21.5951 35.9304C21.368 36.0256 21.1141 36.0732 20.8334 36.0732C20.555 36.0732 20.3011 36.0256 20.0717 35.9304C19.8446 35.8352 19.6481 35.6936 19.4821 35.5056C19.3185 35.3152 19.1915 35.0784 19.1012 34.7952C19.0133 34.512 18.9694 34.1824 18.9694 33.8064V32.8982C18.9694 32.5173 19.0133 32.1841 19.1012 31.8984C19.1891 31.6104 19.3148 31.3699 19.4784 31.177C19.6444 30.9841 19.8409 30.8389 20.068 30.7412C20.2975 30.6436 20.5502 30.5947 20.826 30.5947C21.1068 30.5947 21.3607 30.6436 21.5878 30.7412C21.8173 30.8389 22.0138 30.9841 22.1774 31.177C22.3409 31.3699 22.4667 31.6104 22.5546 31.8984C22.6425 32.1841 22.6864 32.5173 22.6864 32.8982ZM21.8038 33.8064V32.8909C21.8038 32.6199 21.7819 32.3879 21.7379 32.1951C21.6964 31.9998 21.6342 31.8411 21.5511 31.719C21.4681 31.5945 21.3656 31.5029 21.2435 31.4443C21.1239 31.3833 20.9847 31.3528 20.826 31.3528C20.6722 31.3528 20.5343 31.3833 20.4122 31.4443C20.2926 31.5029 20.1901 31.5945 20.1046 31.719C20.0216 31.8411 19.9581 31.9998 19.9142 32.1951C19.8727 32.3879 19.8519 32.6199 19.8519 32.8909V33.8064C19.8519 34.0725 19.8739 34.302 19.9178 34.4949C19.9618 34.6853 20.0253 34.8416 20.1083 34.9636C20.1937 35.0833 20.2975 35.1724 20.4196 35.231C20.5416 35.2896 20.6796 35.3188 20.8334 35.3188C20.9896 35.3188 21.1288 35.2896 21.2509 35.231C21.3729 35.1724 21.4742 35.0833 21.5548 34.9636C21.6378 34.8416 21.7001 34.6853 21.7416 34.4949C21.7831 34.302 21.8038 34.0725 21.8038 33.8064ZM24.6477 33.7039L23.0144 30.668H24.091L25.0761 32.8909H25.9221L25.7903 33.7039H24.6477ZM25.0798 33.583L24.0288 36H22.9265L24.417 32.9531L25.0798 33.583ZM26.4238 30.668V36H25.5376V30.668H26.4238ZM28.914 30.668L27.2954 33.7039H26.1748L26.0393 32.8909H26.8706L27.8374 30.668H28.914ZM27.8996 36L26.8669 33.583L27.5298 32.9531L29.0019 36H27.8996ZM32.2816 32.8872V33.6343H30.0367V32.8872H32.2816ZM30.2454 30.668V36H29.3555V30.668H30.2454ZM32.9774 30.668V36H32.0911V30.668H32.9774ZM37.3776 32.8982V33.8064C37.3776 34.1824 37.3337 34.512 37.2458 34.7952C37.1603 35.0784 37.0358 35.3152 36.8722 35.5056C36.7111 35.6936 36.5158 35.8352 36.2863 35.9304C36.0592 36.0256 35.8053 36.0732 35.5246 36.0732C35.2463 36.0732 34.9924 36.0256 34.7629 35.9304C34.5358 35.8352 34.3393 35.6936 34.1733 35.5056C34.0097 35.3152 33.8827 35.0784 33.7924 34.7952C33.7045 34.512 33.6606 34.1824 33.6606 33.8064V32.8982C33.6606 32.5173 33.7045 32.1841 33.7924 31.8984C33.8803 31.6104 34.006 31.3699 34.1696 31.177C34.3356 30.9841 34.5322 30.8389 34.7592 30.7412C34.9887 30.6436 35.2414 30.5947 35.5173 30.5947C35.798 30.5947 36.0519 30.6436 36.279 30.7412C36.5085 30.8389 36.705 30.9841 36.8686 31.177C37.0322 31.3699 37.1579 31.6104 37.2458 31.8984C37.3337 32.1841 37.3776 32.5173 37.3776 32.8982ZM36.495 33.8064V32.8909C36.495 32.6199 36.4731 32.3879 36.4291 32.1951C36.3876 31.9998 36.3254 31.8411 36.2424 31.719C36.1593 31.5945 36.0568 31.5029 35.9347 31.4443C35.8151 31.3833 35.6759 31.3528 35.5173 31.3528C35.3634 31.3528 35.2255 31.3833 35.1034 31.4443C34.9838 31.5029 34.8813 31.5945 34.7958 31.719C34.7128 31.8411 34.6493 31.9998 34.6054 32.1951C34.5639 32.3879 34.5431 32.6199 34.5431 32.8909V33.8064C34.5431 34.0725 34.5651 34.302 34.6091 34.4949C34.653 34.6853 34.7165 34.8416 34.7995 34.9636C34.8849 35.0833 34.9887 35.1724 35.1108 35.231C35.2328 35.2896 35.3708 35.3188 35.5246 35.3188C35.6808 35.3188 35.82 35.2896 35.9421 35.231C36.0641 35.1724 36.1655 35.0833 36.246 34.9636C36.329 34.8416 36.3913 34.6853 36.4328 34.4949C36.4743 34.302 36.495 34.0725 36.495 33.8064ZM40.6536 34.2605H41.5398C41.5227 34.6462 41.4446 34.9746 41.3054 35.2456C41.1663 35.5142 40.9661 35.7192 40.7049 35.8608C40.4461 36.0024 40.1299 36.0732 39.7564 36.0732C39.4732 36.0732 39.2193 36.022 38.9946 35.9194C38.7725 35.8169 38.5833 35.6692 38.427 35.4763C38.2708 35.281 38.1511 35.043 38.0681 34.7622C37.9876 34.4814 37.9473 34.1628 37.9473 33.8064V32.8616C37.9473 32.5051 37.9888 32.1865 38.0718 31.9058C38.1572 31.625 38.2793 31.387 38.438 31.1917C38.5967 30.9963 38.7896 30.8486 39.0166 30.7485C39.2461 30.646 39.5049 30.5947 39.793 30.5947C40.1616 30.5947 40.4717 30.6655 40.7232 30.8071C40.9746 30.9487 41.1687 31.1562 41.3054 31.4297C41.4422 31.7031 41.5215 32.0364 41.5435 32.4294H40.6572C40.645 32.1633 40.6084 31.9509 40.5474 31.7922C40.4888 31.6311 40.3985 31.5151 40.2764 31.4443C40.1568 31.3735 39.9956 31.3381 39.793 31.3381C39.6245 31.3381 39.4793 31.3699 39.3572 31.4333C39.2376 31.4968 39.1387 31.592 39.0606 31.719C38.9849 31.8435 38.9275 32.001 38.8884 32.1914C38.8518 32.3794 38.8335 32.6003 38.8335 32.8542V33.8064C38.8335 34.0505 38.8494 34.2666 38.8811 34.4546C38.9129 34.6426 38.9641 34.8025 39.0349 34.9343C39.1057 35.0637 39.1997 35.1626 39.3169 35.231C39.4341 35.2969 39.5806 35.3298 39.7564 35.3298C39.9663 35.3298 40.1336 35.2969 40.2581 35.231C40.385 35.165 40.479 35.054 40.5401 34.8977C40.6011 34.7415 40.6389 34.5291 40.6536 34.2605ZM43.9259 30.668V36H43.0397V30.668H43.9259ZM45.2845 30.668V31.415H41.6957V30.668H45.2845ZM46.6269 34.3777L48.4836 30.668H49.3442V36H48.4726V32.3123L46.6269 36H45.759V30.668H46.6269V34.3777Z" fill="#161616"></path></svg> 