<?xml version="1.0" encoding="UTF-8"?> <svg xmlns="http://www.w3.org/2000/svg" width="14" height="14" viewBox="0 0 14 14" fill="none"><path d="M3.22994 0.833187C3.15647 0.852642 3.05491 0.941269 3.01602 1.01909C2.98577 1.0861 2.98145 1.22877 2.98145 2.30528V3.51364L3.03114 3.58498C3.05707 3.62389 3.10677 3.67793 3.13919 3.70171C3.19753 3.74494 3.22562 3.7471 3.85659 3.7471C4.48539 3.7471 4.51564 3.74494 4.57182 3.70171C4.60424 3.67793 4.65177 3.63037 4.67554 3.59795C4.72092 3.53958 4.72092 3.51148 4.7274 2.31825C4.73389 0.956401 4.73821 1.00396 4.58479 0.887228L4.50916 0.828863L3.89116 0.82454C3.55191 0.82454 3.25371 0.826702 3.22994 0.833187Z" fill="#161616"></path><path d="M9.51804 0.833187C9.49427 0.839672 9.44241 0.867773 9.40352 0.898036C9.26522 1.0018 9.26955 0.952078 9.26955 2.29447V3.51364L9.31925 3.58498C9.34518 3.62389 9.39487 3.67793 9.42729 3.70171C9.48563 3.74494 9.51372 3.7471 10.1425 3.7471H10.7973L10.8729 3.68874C11.0241 3.57201 11.0198 3.6174 11.0198 2.28582V1.09259L10.9636 0.995311C10.8642 0.826702 10.8232 0.818055 10.1447 0.820217C9.82488 0.822378 9.54181 0.828863 9.51804 0.833187Z" fill="#161616"></path><path d="M1.53324 2.17127C1.28475 2.23828 1.05138 2.43283 0.92821 2.6771C0.828811 2.87381 0.815846 3.0208 0.824489 3.87682L0.830972 4.65501H7.00017H13.1694V3.81197C13.1694 2.90839 13.165 2.86732 13.0548 2.64683C12.9468 2.42634 12.6724 2.21666 12.4174 2.1583C12.3677 2.14749 12.076 2.13668 11.7713 2.13668H11.2138V2.8349V3.53311L11.1576 3.64552C11.095 3.77306 11.0085 3.85304 10.8681 3.91573C10.7773 3.9568 10.7255 3.96112 10.1658 3.96112C9.48729 3.96328 9.41383 3.95248 9.26905 3.82926C9.22151 3.78603 9.15452 3.70388 9.12211 3.6412L9.06377 3.53095L9.05729 2.83274L9.0508 2.13668H6.99801C5.37306 2.13668 4.94737 2.14317 4.94521 2.16262C4.94521 2.17775 4.94305 2.48687 4.94089 2.85003C4.93657 3.4942 4.93441 3.5115 4.88471 3.6239C4.82636 3.75144 4.7248 3.85088 4.58219 3.91789C4.48927 3.95896 4.44822 3.96328 3.85615 3.96112C3.25327 3.95896 3.22518 3.9568 3.11498 3.90924C2.98749 3.8552 2.88809 3.75144 2.82111 3.60877C2.77789 3.51582 2.77573 3.46826 2.76924 2.82193L2.76276 2.13668L2.20743 2.13884C1.79038 2.13884 1.62184 2.14749 1.53324 2.17127Z" fill="#161616"></path><path d="M0.820312 8.57194C0.820312 11.8101 0.824634 12.303 0.852725 12.424C0.94348 12.8023 1.25464 13.0941 1.64143 13.1611C1.74299 13.1784 3.28367 13.1828 7.08675 13.1784L12.3916 13.1719L12.5126 13.1266C12.6747 13.0639 12.7827 12.9925 12.9016 12.8672C13.0226 12.7375 13.0615 12.6748 13.122 12.517L13.1695 12.3938L13.176 8.62598L13.1803 4.86038H7.00031H0.820312V8.57194ZM6.20944 5.55211C6.32829 5.5975 6.33477 5.6256 6.33693 6.29355C6.34126 6.8491 6.33693 6.90963 6.30236 6.96367C6.28075 6.99825 6.23754 7.03284 6.20728 7.04581C6.17271 7.05878 5.89612 7.06527 5.50285 7.06094L4.85676 7.05446L4.8049 6.99393L4.75304 6.9334V6.30652C4.75304 5.91959 4.76168 5.66235 4.77465 5.63857C4.82867 5.53914 4.87837 5.53265 5.53526 5.53049C5.87884 5.53049 6.17919 5.53914 6.20944 5.55211ZM9.13954 5.56291C9.17412 5.58021 9.21301 5.61479 9.22598 5.63641C9.23894 5.66235 9.24758 5.91743 9.24758 6.30652V6.9334L9.19572 6.99393L9.14386 7.05446H8.46104H7.77821L7.71987 6.99393L7.65937 6.93557V6.30004C7.65937 5.69478 7.66153 5.66235 7.70258 5.61696C7.72635 5.59102 7.76525 5.56075 7.78902 5.54994C7.81279 5.5413 8.11314 5.53265 8.45456 5.53265C8.96884 5.53049 9.08768 5.53697 9.13954 5.56291ZM12.0459 5.56075C12.0848 5.57805 12.128 5.61047 12.1409 5.63425C12.1734 5.69261 12.1734 6.90098 12.1431 6.95934C12.0891 7.05878 12.0329 7.06527 11.3522 7.06527H10.7126L10.6392 6.99177L10.5657 6.91827V6.30869C10.5657 5.6429 10.5722 5.59966 10.6953 5.55427C10.7256 5.54346 11.0238 5.53265 11.3609 5.53265C11.8406 5.53049 11.9875 5.53697 12.0459 5.56075ZM3.33985 8.11367C3.43061 8.17636 3.43709 8.23688 3.43061 8.8789L3.42412 9.49065L3.36362 9.54253L3.30312 9.59441H2.64406C1.97204 9.59441 1.9245 9.59008 1.864 9.5101C1.84455 9.48416 1.83807 9.30474 1.83591 8.84215V8.20662L1.89857 8.14393L1.96124 8.08124H2.62893C3.17779 8.08124 3.30312 8.08773 3.33985 8.11367ZM6.27427 8.13529C6.30452 8.16339 6.33045 8.20878 6.33261 8.23688C6.33261 8.27796 6.33261 9.37175 6.33045 9.46038C6.33045 9.47551 6.30452 9.51226 6.27427 9.54036L6.21593 9.59441H5.54391C4.91726 9.59441 4.86756 9.59008 4.81786 9.55117C4.74872 9.49929 4.74007 9.4085 4.74872 8.72758L4.7552 8.19365L4.81138 8.13745L4.86756 8.08124H5.54175H6.21593L6.27427 8.13529ZM9.18708 8.13961L9.24758 8.19797V8.83566V9.47335L9.18924 9.53388L9.1309 9.59441H8.4632C8.02671 9.59441 7.78254 9.58576 7.75228 9.57063C7.66153 9.52091 7.64856 9.4366 7.64856 8.83783C7.64856 8.24553 7.66153 8.1569 7.75012 8.10502C7.77605 8.08989 8.02239 8.08341 8.45672 8.08124H9.12658L9.18708 8.13961ZM12.1021 8.14393L12.1647 8.20662V8.83783V9.46903L12.1021 9.53172L12.0394 9.59441H11.3674H10.6975L10.637 9.54253L10.5765 9.49065V8.83783V8.185L10.637 8.13312L10.6975 8.08124H11.3674H12.0394L12.1021 8.14393ZM3.36362 10.6817L3.42412 10.7401L3.43061 11.3302C3.43925 11.9917 3.43061 12.0522 3.32256 12.1106C3.25774 12.1452 3.18427 12.1473 2.59652 12.1408L1.93963 12.1344L1.88777 12.0738L1.83591 12.0133V11.3864C1.83591 10.9995 1.84455 10.7422 1.85752 10.7185C1.91154 10.6169 1.95691 10.6104 2.65054 10.6169L3.30528 10.6212L3.36362 10.6817ZM6.22241 10.6385C6.3391 10.6969 6.34774 10.7509 6.34126 11.3994C6.33477 12.0479 6.32829 12.0781 6.20728 12.1257C6.17271 12.1387 5.89828 12.1452 5.50717 12.1408L4.8654 12.1344L4.80922 12.0825L4.75304 12.0306V11.3886C4.75304 10.7012 4.75736 10.6774 4.86972 10.632C4.94535 10.6017 6.15975 10.6061 6.22241 10.6385ZM9.12874 10.6406C9.16763 10.6579 9.21085 10.6904 9.22382 10.7141C9.23894 10.7444 9.24758 10.9779 9.24758 11.3864V12.0133L9.19572 12.0738L9.14386 12.1344L8.47184 12.1408L7.80198 12.1473L7.73068 12.0825L7.65937 12.0198V11.3821C7.65937 10.7747 7.66153 10.7422 7.70258 10.6969C7.72635 10.6709 7.76525 10.6406 7.78902 10.6298C7.81279 10.6212 8.10666 10.6125 8.44375 10.6125C8.92346 10.6104 9.0704 10.6169 9.12874 10.6406Z" fill="#161616"></path></svg> 